<?xml version="1.0" standalone="no"?>
<!DOCTYPE svg PUBLIC "-//W3C//DTD SVG 20010904//EN"
 "http://www.w3.org/TR/2001/REC-SVG-20010904/DTD/svg10.dtd">
<svg version="1.0" xmlns="http://www.w3.org/2000/svg"
 width="4687.000000pt" height="4687.000000pt" viewBox="0 0 4687.000000 4687.000000"
 preserveAspectRatio="xMidYMid meet">

<g transform="translate(0.000000,4687.000000) scale(0.100000,-0.100000)"
fill="#000000" stroke="none">
<path d="M9430 29891 c-195 -11 -416 -31 -467 -42 -23 -5 -57 -9 -75 -9 -18 0
-76 -9 -128 -21 -52 -11 -120 -24 -150 -29 -30 -5 -73 -13 -95 -18 -22 -5
-103 -24 -180 -42 -159 -36 -312 -77 -337 -91 -10 -5 -27 -9 -38 -9 -11 0 -28
-4 -38 -9 -18 -11 -132 -52 -197 -72 -61 -19 -146 -49 -180 -64 -16 -7 -51
-22 -77 -34 -26 -11 -50 -21 -53 -21 -2 0 -30 -12 -62 -26 -32 -15 -74 -33
-93 -41 -19 -8 -52 -23 -73 -34 -22 -10 -45 -19 -52 -19 -7 0 -15 -4 -17 -8
-1 -5 -61 -37 -133 -72 -71 -35 -148 -76 -170 -90 -22 -15 -75 -46 -119 -69
-112 -60 -120 -65 -126 -72 -3 -4 -63 -43 -133 -88 -71 -44 -135 -88 -143 -96
-9 -8 -61 -46 -117 -85 -56 -38 -115 -82 -132 -97 -16 -16 -46 -39 -65 -53
-19 -13 -64 -49 -100 -79 -36 -31 -81 -69 -100 -85 -40 -32 -273 -250 -334
-312 -87 -88 -194 -202 -256 -274 -35 -41 -67 -77 -70 -80 -3 -3 -23 -27 -45
-55 -22 -27 -50 -61 -63 -75 -13 -14 -37 -45 -54 -70 -18 -25 -43 -59 -57 -76
-50 -60 -58 -71 -77 -102 -10 -18 -22 -32 -26 -32 -4 0 -8 -5 -8 -11 0 -12
-70 -112 -82 -117 -5 -2 -8 -10 -8 -18 0 -8 -3 -14 -8 -14 -4 0 -16 -17 -27
-37 -10 -21 -43 -73 -72 -115 -29 -43 -53 -82 -53 -87 0 -5 -3 -11 -7 -13 -5
-1 -21 -30 -37 -63 -17 -33 -45 -84 -63 -113 -18 -29 -33 -56 -33 -61 0 -5 -3
-11 -7 -13 -10 -4 -63 -110 -63 -126 0 -6 -4 -12 -10 -12 -5 0 -10 -6 -10 -13
0 -7 -25 -62 -55 -122 -30 -59 -55 -112 -55 -116 0 -5 -11 -32 -24 -61 -13
-29 -31 -72 -40 -95 -8 -23 -25 -64 -37 -90 -11 -26 -24 -57 -29 -68 -4 -11
-12 -31 -18 -45 -6 -14 -18 -52 -28 -85 -9 -33 -20 -68 -25 -77 -5 -10 -9 -27
-9 -37 0 -11 -5 -23 -10 -26 -6 -3 -10 -15 -10 -25 0 -17 -18 -66 -41 -112 -5
-10 -9 -31 -9 -48 0 -16 -4 -30 -10 -30 -5 0 -10 -11 -10 -25 0 -14 -4 -33 -9
-43 -5 -9 -15 -44 -21 -77 -14 -70 -26 -127 -40 -190 -14 -63 -26 -120 -40
-190 -6 -33 -16 -68 -21 -77 -5 -10 -9 -37 -9 -61 0 -24 -4 -47 -9 -52 -5 -6
-12 -37 -14 -70 -21 -250 -36 -396 -41 -404 -4 -6 -7 -216 -7 -468 0 -497 10
-680 57 -953 3 -19 8 -57 11 -85 3 -27 9 -54 14 -59 5 -6 9 -26 9 -45 0 -19 4
-48 9 -65 12 -37 35 -137 51 -221 14 -70 37 -169 49 -205 5 -14 14 -45 21 -70
25 -88 33 -115 41 -135 4 -11 26 -78 49 -150 22 -71 45 -141 51 -155 7 -14 15
-34 19 -45 5 -11 15 -36 24 -56 8 -20 31 -76 50 -125 44 -116 190 -422 256
-539 12 -22 45 -80 73 -130 27 -49 58 -102 68 -117 11 -14 19 -29 19 -33 0 -3
17 -32 38 -63 22 -31 74 -111 118 -177 43 -66 81 -122 84 -125 3 -3 23 -30 45
-60 41 -57 175 -231 185 -240 3 -3 24 -27 45 -55 22 -27 42 -52 45 -55 3 -3
41 -45 84 -95 125 -143 418 -438 504 -506 18 -15 52 -44 75 -65 36 -34 71 -63
157 -131 8 -7 51 -41 95 -76 85 -68 380 -275 455 -321 25 -15 86 -52 135 -82
116 -72 382 -215 493 -266 48 -21 119 -54 157 -72 83 -40 120 -55 200 -85 33
-13 92 -36 130 -51 137 -55 486 -164 665 -208 181 -45 217 -52 530 -106 104
-18 276 -41 435 -57 238 -25 1045 -13 1144 17 8 3 -73 63 -180 134 -107 71
-214 145 -239 164 -25 20 -65 50 -90 67 -25 18 -70 53 -100 78 -30 25 -77 64
-105 86 -27 22 -52 42 -55 45 -3 3 -43 38 -90 79 -109 95 -458 443 -530 528
-30 35 -66 76 -79 91 -53 61 -221 273 -290 367 -217 296 -458 703 -593 1000
-20 44 -50 111 -68 148 -35 77 -160 396 -195 502 -13 39 -46 149 -74 245 -73
252 -84 293 -110 420 -33 157 -85 481 -101 630 -46 409 -46 910 -1 1345 22
208 91 600 137 780 9 33 19 76 24 95 21 89 121 417 155 505 14 39 35 93 45
120 26 72 78 203 99 250 10 22 33 74 52 115 93 207 251 498 414 763 38 62 198
292 258 372 60 80 216 276 226 285 3 3 35 39 71 80 171 199 478 499 675 660
50 41 92 77 95 80 3 4 70 56 150 116 173 130 453 317 605 404 61 34 126 72
145 83 41 23 364 185 430 215 380 171 897 340 1245 406 17 3 62 13 100 21 61
14 297 55 318 55 21 0 1 28 -36 49 -116 66 -449 226 -582 281 -82 34 -163 68
-180 75 -31 15 -413 141 -495 165 -25 7 -56 16 -70 20 -30 10 -216 53 -325 76
-192 39 -223 46 -280 56 -131 22 -198 30 -495 58 -154 14 -650 20 -830 11z
m-3490 -2129 c-6 -2 -10 -15 -10 -28 0 -15 -6 -24 -15 -24 -8 0 -15 -8 -15
-18 0 -10 -9 -24 -20 -32 -16 -11 -20 -25 -19 -65 1 -48 1 -49 11 -20 11 28
74 94 91 95 4 0 7 7 7 16 0 14 8 16 44 12 28 -4 46 -1 49 6 4 10 19 11 85 7
17 -1 15 -21 -3 -21 -20 0 -19 -10 3 -26 16 -13 16 -13 0 -14 -29 0 -21 -30 8
-30 14 0 23 -4 20 -9 -3 -5 -16 -7 -29 -4 -12 3 -19 2 -14 -2 4 -5 -16 -33
-45 -62 -29 -29 -47 -53 -40 -53 7 0 12 5 12 10 0 6 6 10 13 10 6 0 25 11 41
25 29 25 46 31 46 17 0 -4 -31 -37 -68 -72 -37 -36 -71 -73 -75 -82 -8 -22 13
-36 24 -16 5 9 28 37 51 63 24 27 42 52 41 57 -5 15 18 8 24 -8 4 -11 -11 -32
-46 -66 -28 -28 -51 -57 -51 -64 0 -8 -9 -23 -19 -33 -20 -20 -41 -100 -41
-156 0 -50 -18 -43 -22 8 -6 77 -23 44 -28 -53 -5 -103 -22 -110 -25 -11 -3
89 -5 105 -11 98 -11 -10 -14 -207 -4 -207 6 0 10 -8 10 -17 0 -14 -3 -14 -20
5 -11 12 -20 29 -20 39 -1 16 -2 16 -12 -1 -8 -15 -8 -21 0 -24 20 -6 14 -50
-8 -57 -11 -3 -20 -15 -20 -26 0 -10 -4 -19 -9 -19 -5 0 -15 -16 -22 -35 -7
-19 -18 -35 -24 -35 -5 0 -2 -7 8 -15 15 -10 17 -21 12 -44 -4 -17 -10 -31
-15 -31 -4 0 -7 -18 -6 -41 1 -22 -1 -42 -6 -45 -4 -3 -8 2 -8 10 0 9 -4 16
-9 16 -5 0 -13 10 -17 23 l-7 22 -10 -23 c-8 -18 -7 -26 4 -33 10 -6 10 -9 2
-9 -7 0 -13 -9 -13 -20 0 -11 5 -20 10 -20 6 0 10 -9 10 -20 0 -13 -7 -20 -20
-20 -11 0 -20 -7 -20 -15 0 -8 -4 -15 -10 -15 -5 0 -10 -7 -10 -15 0 -8 -9
-24 -20 -35 -24 -24 -19 -40 13 -41 12 0 16 -3 10 -6 -7 -2 -13 -11 -13 -19 0
-8 -6 -14 -13 -12 -7 2 -14 0 -15 -4 -5 -19 -1 -27 13 -22 8 4 15 1 15 -5 0
-6 -6 -11 -13 -11 -7 0 -19 -16 -26 -35 -7 -19 -18 -35 -26 -35 -16 0 -26 -62
-11 -73 8 -6 8 -10 -1 -14 -7 -2 -13 -11 -13 -19 0 -8 -4 -14 -10 -14 -14 0
-12 28 3 33 6 2 9 8 5 12 -8 9 -38 -18 -38 -34 0 -6 -4 -11 -10 -11 -5 0 -10
-4 -10 -10 0 -5 9 -10 20 -10 31 0 24 -17 -10 -23 -18 -4 -30 -13 -30 -22 0
-9 -9 -41 -20 -72 -11 -32 -20 -58 -20 -59 0 -1 8 -4 18 -6 14 -4 16 -14 13
-64 -3 -47 -5 -54 -12 -36 -5 13 -6 28 -3 33 3 5 2 19 -2 31 -5 16 -8 18 -14
7 -12 -22 -23 -91 -21 -126 2 -27 -1 -33 -18 -33 -23 0 -25 -5 -21 -69 1 -26
-3 -47 -10 -51 -17 -11 -30 -91 -18 -113 5 -11 7 -31 3 -45 -6 -24 -8 -25 -17
-9 -5 10 -8 27 -5 38 3 12 0 19 -10 19 -12 0 -14 10 -11 45 2 31 -1 45 -9 45
-19 0 -16 -63 4 -104 15 -32 15 -37 0 -60 -10 -14 -17 -34 -17 -45 0 -11 -6
-22 -12 -25 -7 -3 -3 -3 9 -1 20 5 20 3 13 -30 -8 -36 -23 -61 -50 -82 -8 -6
-12 -14 -8 -18 3 -4 16 3 28 15 12 12 24 20 26 17 9 -9 -16 -57 -41 -79 -14
-12 -25 -31 -24 -42 0 -15 2 -17 6 -6 8 20 29 40 42 40 16 0 14 -23 -4 -46 -8
-10 -15 -29 -15 -42 0 -27 -22 -52 -44 -52 -9 0 -16 -4 -16 -10 0 -5 -9 -10
-20 -10 -11 0 -20 -7 -20 -15 0 -20 27 -19 38 0 8 15 42 12 42 -4 -1 -12 -49
-61 -62 -61 -9 0 -9 -3 0 -12 18 -18 15 -28 -10 -38 -22 -8 -22 -9 -2 -9 11
-1 23 -4 26 -7 11 -10 -34 -47 -63 -53 -21 -4 -26 -10 -20 -20 12 -18 65 -17
93 3 29 21 44 21 23 0 -24 -25 -45 -71 -39 -87 6 -17 -40 -57 -67 -57 -12 0
-16 -5 -13 -15 4 -8 14 -15 23 -15 36 0 43 -16 17 -41 -22 -21 -23 -24 -8 -35
15 -11 14 -14 -10 -23 -29 -11 -30 -41 -1 -41 23 0 9 -25 -15 -28 -27 -4 -28
-19 -2 -27 20 -6 20 -6 0 -28 -11 -11 -20 -24 -20 -29 0 -4 -7 -8 -16 -8 -24
0 -11 -23 22 -39 l29 -14 -28 -10 c-27 -9 -36 -34 -17 -53 7 -7 -4 -17 -32
-32 -34 -17 -39 -22 -24 -28 9 -4 22 -2 29 5 13 13 47 15 47 3 0 -5 -18 -17
-41 -27 -39 -18 -40 -19 -18 -31 l22 -11 -23 -13 -23 -13 29 -12 c19 -9 23
-14 12 -14 -10 -1 -18 -5 -18 -9 0 -4 -20 -28 -45 -53 -75 -72 -123 -190 -126
-309 l-1 -45 -9 40 c-11 55 -2 139 24 205 18 48 58 101 120 160 10 10 14 20 9
23 -7 5 -41 -24 -97 -85 -8 -9 -15 -21 -15 -25 0 -5 -8 -18 -17 -29 -46 -50
-92 -251 -63 -269 6 -3 10 -19 10 -36 0 -16 -4 -29 -10 -29 -5 0 -10 15 -10
33 0 17 -7 41 -15 51 -8 11 -15 34 -15 51 0 36 27 135 41 150 5 5 9 20 9 35 0
24 -1 24 -20 -8 -31 -50 -50 -137 -50 -225 0 -112 -16 -87 -19 30 -3 133 -21
147 -22 18 -1 -116 -12 -163 -23 -101 -4 22 -7 78 -6 125 3 117 1 125 -17 61
-21 -79 -27 -129 -15 -143 6 -6 11 -32 13 -57 2 -25 7 -48 12 -51 5 -4 7 -17
5 -30 -4 -23 -5 -23 -12 -4 -14 37 -23 60 -36 90 -7 17 -14 66 -16 109 -2 43
-5 81 -8 83 -8 9 -17 -110 -11 -148 5 -30 3 -43 -8 -52 -23 -18 -31 -66 -12
-73 8 -4 15 -10 15 -15 0 -5 -9 -4 -19 3 -22 13 -35 86 -20 105 6 7 9 20 6 30
-4 14 -5 13 -6 -4 -1 -13 -7 -23 -16 -23 -11 0 -14 7 -10 23 2 12 1 47 -4 77
l-9 55 -1 -73 c0 -42 4 -81 11 -92 10 -15 10 -28 0 -62 -7 -24 -14 -52 -15
-62 -2 -22 -26 -34 -28 -14 -1 7 -1 16 -1 20 1 3 -5 12 -13 18 -8 7 -15 24
-15 39 0 18 -3 22 -9 12 -10 -15 -3 -51 9 -51 14 0 -2 -44 -22 -61 -10 -9 -18
-26 -18 -38 0 -25 -27 -28 -32 -3 -3 14 -5 13 -10 -5 -4 -16 -2 -23 8 -23 15
0 19 -26 5 -34 -4 -3 -16 12 -26 34 -10 22 -22 40 -27 40 -4 0 -8 6 -8 14 0 7
-7 19 -15 26 -8 7 -15 21 -15 31 0 11 -4 19 -10 19 -5 0 -10 13 -10 28 0 16
-3 32 -7 36 -9 9 -12 31 -22 146 l-8 95 -2 -111 c0 -61 2 -114 6 -118 4 -4 9
-19 11 -34 2 -15 7 -31 13 -37 5 -5 9 -25 9 -45 l0 -35 -20 25 c-11 14 -20 34
-20 45 0 12 -4 25 -9 30 -19 20 -41 121 -41 185 0 79 16 174 30 178 6 2 10 13
10 24 0 17 -3 18 -15 8 -8 -7 -15 -18 -15 -24 0 -17 -80 -100 -113 -116 -24
-12 -29 -12 -40 4 -12 16 -8 24 30 63 24 25 43 49 43 54 0 4 9 11 20 14 11 3
20 13 20 20 0 8 11 25 25 39 34 34 31 49 -5 28 -16 -9 -30 -20 -30 -24 0 -5
-22 -8 -50 -8 -27 0 -50 5 -50 10 0 6 -4 10 -10 10 -5 0 -10 -13 -10 -30 0
-23 -4 -30 -20 -30 -13 0 -20 7 -20 20 0 12 -9 30 -20 42 -11 12 -19 31 -19
42 1 17 2 18 6 4 2 -10 11 -18 19 -18 8 0 14 -4 14 -10 0 -5 8 -10 18 -10 25
0 26 39 2 60 -26 23 -25 48 2 52 28 4 33 21 12 43 -10 9 -13 20 -8 23 14 10
18 72 5 72 -10 0 -16 -27 -12 -57 1 -7 -3 -13 -9 -13 -5 0 -10 6 -10 14 0 8
-8 17 -17 20 -11 5 -13 10 -7 14 6 4 19 23 28 44 15 31 15 40 4 59 -7 13 -19
28 -27 34 -11 10 -10 14 4 28 9 9 23 17 31 17 18 0 18 14 -1 30 -18 15 -20 37
-2 43 10 4 10 7 0 18 -18 18 -16 30 4 27 28 -5 26 27 -2 40 -16 7 -23 17 -19
24 5 8 11 6 19 -5 15 -21 45 -22 45 -2 0 8 7 15 16 15 8 0 12 5 9 10 -5 8 -12
7 -22 -1 -12 -10 -16 -10 -24 2 -13 21 -11 26 16 47 22 17 23 23 15 53 -8 26
-7 35 5 42 18 10 20 37 3 38 -10 0 -10 2 0 6 6 2 12 13 12 23 0 10 5 22 10 25
12 8 13 45 1 45 -5 0 -8 13 -7 30 2 30 35 70 57 70 7 0 5 6 -6 13 -22 17 -11
40 15 32 12 -4 20 0 24 12 8 30 -2 95 -16 104 -8 6 -9 9 -2 9 7 0 14 19 17 43
9 78 28 137 48 147 10 6 19 15 19 21 0 5 10 24 23 41 15 22 18 32 10 35 -10 4
-9 13 2 40 8 19 15 44 15 54 0 21 15 25 24 7 3 -7 4 1 2 17 -5 32 13 95 26 95
4 0 8 -11 8 -25 0 -14 5 -25 10 -25 6 0 10 24 9 53 0 45 -2 49 -11 30 -13 -27
-26 -30 -24 -5 3 38 24 59 55 54 19 -2 31 0 31 7 0 6 -4 11 -10 11 -15 0 -12
23 6 48 13 18 19 21 30 11 11 -9 14 -7 14 14 0 14 -4 27 -8 29 -4 2 -5 32 -2
68 6 58 7 62 15 33 10 -42 33 -44 27 -3 -3 18 0 30 7 30 6 0 11 5 11 12 0 6 7
19 14 27 11 12 13 26 6 55 -6 27 -4 47 5 69 8 18 14 27 15 20 0 -6 3 -18 6
-27 4 -11 1 -16 -10 -16 -9 0 -16 -4 -16 -10 0 -5 6 -10 14 -10 8 0 17 -8 19
-17 2 -10 3 -6 1 8 -1 14 6 41 17 59 13 21 18 43 15 59 -3 14 -3 20 0 14 3 -7
12 -13 19 -13 7 0 16 -6 19 -12 3 -7 3 -2 0 11 -4 14 -1 27 7 32 10 6 11 9 2
9 -7 0 -13 7 -13 15 0 8 5 15 10 15 6 0 10 6 10 14 0 8 6 17 13 19 9 4 9 7 -1
15 -10 6 -6 15 14 35 15 15 30 27 34 27 15 0 50 38 50 54 0 22 -9 20 -31 -6
-11 -11 -22 -18 -25 -15 -7 6 35 49 75 76 14 11 19 22 15 38 -5 17 -2 23 11
23 21 0 45 24 45 44 0 8 5 18 11 21 6 5 4 11 -7 19 -12 10 -14 15 -5 20 6 4
19 2 27 -5 13 -10 20 -8 42 16 66 71 92 111 92 143 0 21 5 32 14 32 8 0 20 20
27 45 7 25 17 45 21 45 4 0 8 19 8 43 0 67 20 83 21 17 0 -30 4 -64 9 -75 l8
-20 7 20 c3 11 11 28 16 37 5 10 9 41 10 70 0 29 4 73 8 98 l8 45 2 -50 c1
-58 10 -95 21 -95 4 0 13 23 20 50 7 28 16 50 21 50 5 0 9 14 9 30 0 21 5 30
16 30 9 0 14 -6 11 -13 -8 -21 6 -37 23 -27 11 7 11 11 1 24 -10 12 -10 19 0
38 9 17 13 19 17 8 5 -15 42 -56 42 -46 0 3 -4 16 -10 31 -8 22 -6 30 15 51
14 14 25 36 25 49 0 14 5 25 10 25 6 0 10 -4 10 -10 0 -5 7 -10 15 -10 8 0 15
-6 15 -12 0 -9 3 -9 9 1 7 10 3 23 -10 39 -10 14 -19 32 -19 41 1 14 2 14 11
-1 5 -10 16 -18 23 -18 7 0 18 -11 24 -25 13 -28 32 -34 32 -10 0 8 -7 15 -16
15 -9 0 -14 6 -11 14 3 7 -6 25 -19 39 -24 27 -32 57 -14 57 6 0 10 -9 10 -19
0 -10 7 -22 16 -25 8 -3 12 -10 9 -16 -3 -5 1 -10 9 -10 9 0 16 9 16 20 0 12
7 20 16 20 21 0 54 -38 54 -62 0 -10 3 -18 8 -18 10 0 9 122 -1 138 -6 8 -1
12 18 12 16 0 24 -4 20 -10 -4 -6 -4 -19 0 -28 6 -15 8 -15 22 3 11 14 17 16
20 7 4 -9 8 -10 18 -2 7 6 19 9 26 8 7 -2 14 4 16 13 3 13 -4 16 -34 15 -21 0
-38 4 -38 9 -1 11 59 35 88 35 9 0 17 5 17 10 0 6 9 10 20 10 11 0 24 8 27 18
7 17 41 52 52 52 11 0 41 62 41 85 0 13 6 25 13 28 8 2 14 -14 19 -52 5 -35 4
-57 -2 -59z m190 78 c0 -5 -4 -10 -10 -10 -5 0 -10 5 -10 10 0 6 5 10 10 10 6
0 10 -4 10 -10z m-314 -56 c-13 -12 -16 -12 -16 -2 0 19 24 42 28 28 2 -5 -4
-17 -12 -26z m-191 -3 c3 -5 1 -12 -5 -16 -5 -3 -10 1 -10 9 0 18 6 21 15 7z
m419 -17 c7 -18 0 -34 -15 -34 -5 0 -9 11 -9 25 0 28 15 34 24 9z m46 12 c0
-2 3 -11 6 -20 4 -12 0 -16 -15 -16 -14 0 -21 6 -21 20 0 11 7 20 15 20 8 0
15 -2 15 -4z m110 -3 c0 -5 -12 -14 -27 -20 -21 -10 -28 -10 -35 0 -14 22 -9
27 27 27 19 0 35 -3 35 -7z m60 -3 c-20 -13 -40 -13 -40 0 0 6 12 10 28 10 21
0 24 -2 12 -10z m-484 -12 c4 -6 -2 -19 -14 -29 -12 -9 -22 -22 -22 -28 0 -6
-4 -11 -10 -11 -5 0 -10 9 -10 20 0 11 4 20 9 20 5 0 13 9 16 20 7 22 20 26
31 8z m424 -38 c0 -5 -4 -10 -9 -10 -6 0 -13 5 -16 10 -3 6 1 10 9 10 9 0 16
-4 16 -10z m47 4 c-3 -3 -12 -4 -19 -1 -8 3 -5 6 6 6 11 1 17 -2 13 -5z m-810
-51 c-3 -10 -5 -4 -5 12 0 17 2 24 5 18 2 -7 2 -21 0 -30z m243 7 c0 -5 -4
-10 -10 -10 -5 0 -10 5 -10 10 0 6 5 10 10 10 6 0 10 -4 10 -10z m542 -53 c-9
-19 -20 10 -14 38 l6 30 6 -30 c4 -16 4 -34 2 -38z m48 56 c0 -5 -5 -15 -10
-23 -8 -12 -10 -11 -10 8 0 12 5 22 10 22 6 0 10 -3 10 -7z m-665 -23 c3 -5 1
-10 -4 -10 -6 0 -11 5 -11 10 0 6 2 10 4 10 3 0 8 -4 11 -10z m-118 -62 c-3
-8 -6 -5 -6 6 -1 11 2 17 5 13 3 -3 4 -12 1 -19z m93 -16 c0 -9 -6 -12 -16 -8
-9 3 -18 6 -20 6 -2 0 -4 9 -4 20 0 18 2 19 20 8 11 -7 20 -19 20 -26z m633
-19 c-7 -2 -21 -2 -30 0 -10 3 -4 5 12 5 17 0 24 -2 18 -5z m-911 -146 c-9
-28 -10 -23 -10 43 0 72 1 73 11 32 7 -29 7 -52 -1 -75z m54 -7 c1 -17 -3 -30
-7 -30 -5 0 -9 14 -9 30 0 39 15 39 16 0z m756 -73 c-11 -12 -23 -39 -27 -59
-4 -21 -11 -38 -16 -38 -5 0 -9 -12 -9 -27 -1 -25 -2 -26 -11 -10 -8 14 -8 22
0 30 6 6 11 30 11 52 0 34 5 44 25 55 13 7 28 23 32 34 6 19 7 19 11 3 2 -11
-5 -29 -16 -40z m-970 -69 c-9 -9 -12 -7 -12 12 0 19 3 21 12 12 9 -9 9 -15 0
-24z m-116 -290 c-9 -12 -16 -30 -16 -40 0 -10 -4 -18 -10 -18 -5 0 -10 -11
-10 -24 0 -16 -7 -27 -19 -31 -11 -3 -23 -15 -26 -26 -7 -22 -45 -26 -45 -4 0
8 9 20 20 27 11 7 20 19 20 26 0 8 11 23 25 34 14 11 25 26 25 33 0 7 8 27 17
44 14 23 20 27 26 15 5 -8 2 -23 -7 -36z m874 -58 c0 -5 -4 -10 -10 -10 -5 0
-10 5 -10 10 0 6 5 10 10 10 6 0 10 -4 10 -10z m-60 -65 c0 -8 -7 -15 -15 -15
-8 0 -15 7 -15 15 0 8 7 15 15 15 8 0 15 -7 15 -15z m-10 -90 c0 -8 -4 -15
-10 -15 -5 0 -10 7 -10 15 0 8 5 15 10 15 6 0 10 -7 10 -15z m-980 -25 c0 -5
-4 -10 -10 -10 -5 0 -10 5 -10 10 0 6 5 10 10 10 6 0 10 -4 10 -10z m890 -180
c0 -5 -4 -10 -10 -10 -5 0 -10 5 -10 10 0 6 5 10 10 10 6 0 10 -4 10 -10z
m-1138 -235 c0 -5 -5 -11 -11 -13 -6 -2 -11 4 -11 13 0 9 5 15 11 13 6 -2 11
-8 11 -13z m-79 -143 c-9 -6 -18 -19 -19 -28 -4 -28 -14 -28 -14 -1 0 15 4 27
9 27 5 0 13 10 16 21 6 17 9 19 16 8 6 -9 3 -18 -8 -27z m1037 -62 c0 -5 -3
-10 -7 -10 -12 0 -44 -61 -38 -71 4 -5 2 -16 -3 -25 -7 -13 -10 -9 -14 20 -3
25 0 36 9 36 7 0 13 11 13 24 0 22 10 33 33 35 4 1 7 -3 7 -9z m-117 -375 c-7
-21 -13 -19 -13 6 0 11 4 18 10 14 5 -3 7 -12 3 -20z m-26 -107 c-3 -7 -5 -2
-5 12 0 14 2 19 5 13 2 -7 2 -19 0 -25z m-1157 -67 c0 -6 -4 -13 -10 -16 -5
-3 -10 1 -10 9 0 9 5 16 10 16 6 0 10 -4 10 -9z m-70 -341 c0 -5 -4 -10 -10
-10 -5 0 -10 5 -10 10 0 6 5 10 10 10 6 0 10 -4 10 -10z m0 -45 c0 -9 -9 -15
-25 -15 -16 0 -25 6 -25 15 0 9 9 15 25 15 16 0 25 -6 25 -15z m-70 -45 c0 -5
-4 -10 -10 -10 -5 0 -10 5 -10 10 0 6 5 10 10 10 6 0 10 -4 10 -10z m-70 -320
c0 -16 -4 -30 -10 -30 -5 0 -10 14 -10 30 0 17 5 30 10 30 6 0 10 -13 10 -30z
m-45 -280 c3 -5 1 -10 -4 -10 -6 0 -11 5 -11 10 0 6 2 10 4 10 3 0 8 -4 11
-10z m-2 -122 c3 -10 4 -18 0 -18 -9 0 -32 34 -33 48 0 11 2 11 13 0 7 -7 16
-21 20 -30z m1097 -326 c0 -5 -12 -15 -26 -23 -38 -20 -78 -84 -107 -169 -14
-41 -27 -84 -30 -95 -3 -17 -5 -15 -12 9 -5 18 -4 36 4 47 6 10 11 30 11 44 0
50 61 144 114 176 34 21 46 24 46 11z m-1113 -108 c11 -10 13 -18 6 -22 -6 -4
-13 -16 -16 -27 -4 -16 -5 -14 -6 7 0 14 -4 33 -7 42 -8 20 3 20 23 0z m1073
-28 c-17 -24 -30 -55 -30 -69 0 -14 -4 -29 -10 -32 -16 -10 -12 53 6 88 22 44
34 57 50 57 9 0 3 -15 -16 -44z m-1153 -138 c-2 -13 -4 -5 -4 17 -1 22 1 32 4
23 2 -10 2 -28 0 -40z m1050 -95 c-3 -10 -5 -4 -5 12 0 17 2 24 5 18 2 -7 2
-21 0 -30z m-820 -45 c-3 -8 -6 -5 -6 6 -1 11 2 17 5 13 3 -3 4 -12 1 -19z
m522 -41 c5 -7 6 -18 2 -25 -5 -9 -13 0 -25 27 -11 22 -15 45 -10 52 5 9 10 5
15 -15 4 -15 12 -33 18 -39z m-463 -4 c7 -10 14 -27 14 -38 0 -18 -2 -17 -26
7 -15 14 -23 31 -20 37 10 15 17 14 32 -6z m377 -28 c4 -8 2 -17 -3 -20 -6 -4
-10 3 -10 14 0 25 6 27 13 6z m47 -21 c0 -8 -4 -12 -10 -9 -5 3 -10 10 -10 16
0 5 5 9 10 9 6 0 10 -7 10 -16z m70 -9 c0 -8 -4 -15 -10 -15 -5 0 -10 7 -10
15 0 8 5 15 10 15 6 0 10 -7 10 -15z m-193 -37 c-3 -8 -6 -5 -6 6 -1 11 2 17
5 13 3 -3 4 -12 1 -19z m50 0 c-3 -8 -6 -5 -6 6 -1 11 2 17 5 13 3 -3 4 -12 1
-19z m-273 -34 c3 -8 2 -12 -4 -9 -6 3 -10 10 -10 16 0 14 7 11 14 -7z m88
-24 c4 0 8 -7 8 -15 0 -8 -4 -15 -8 -15 -16 0 -32 25 -31 50 l0 25 11 -22 c6
-13 15 -23 20 -23z m168 30 c0 -5 -4 -10 -10 -10 -5 0 -10 5 -10 10 0 6 5 10
10 10 6 0 10 -4 10 -10z m-53 -22 c-3 -8 -6 -5 -6 6 -1 11 2 17 5 13 3 -3 4
-12 1 -19z"/>
<path d="M6090 27680 c0 -5 -9 -10 -20 -10 -48 0 -90 -37 -90 -78 1 -15 2 -15
11 1 6 11 17 16 28 12 12 -3 22 3 30 18 7 13 26 28 42 34 30 12 40 33 14 33
-8 0 -15 -4 -15 -10z"/>
<path d="M6079 27604 c-12 -13 -28 -24 -34 -24 -17 0 -45 -33 -45 -53 0 -9 -4
-17 -10 -17 -5 0 -10 -6 -10 -12 0 -7 13 2 29 20 17 17 35 32 40 32 6 0 11 7
11 15 0 8 7 15 15 15 9 0 25 8 36 19 16 15 17 20 6 24 -8 3 -25 -5 -38 -19z"/>
<path d="M5926 27558 c-10 -11 -16 -32 -14 -46 3 -27 3 -26 21 10 9 20 23 38
29 40 8 3 7 6 -4 10 -9 4 -22 -2 -32 -14z"/>
<path d="M5527 27510 c-10 -10 -14 -20 -9 -23 7 -5 42 26 42 38 0 10 -16 3
-33 -15z"/>
<path d="M5650 27520 c0 -5 7 -10 15 -10 8 0 15 5 15 10 0 6 -7 10 -15 10 -8
0 -15 -4 -15 -10z"/>
<path d="M5842 27510 c0 -14 2 -19 5 -12 2 6 2 18 0 25 -3 6 -5 1 -5 -13z"/>
<path d="M5822 27440 c0 -14 2 -19 5 -12 2 6 2 18 0 25 -3 6 -5 1 -5 -13z"/>
<path d="M5927 27419 c-9 -10 -16 -29 -16 -42 1 -20 2 -20 6 -2 3 11 14 27 25
36 10 10 15 20 10 23 -5 3 -16 -4 -25 -15z"/>
<path d="M5772 27395 c0 -16 2 -22 5 -12 2 9 2 23 0 30 -3 6 -5 -1 -5 -18z"/>
<path d="M5957 27350 c-3 -11 -1 -20 4 -20 5 0 9 9 9 20 0 11 -2 20 -4 20 -2
0 -6 -9 -9 -20z"/>
<path d="M6000 27348 c0 -19 2 -20 10 -8 13 19 13 30 0 30 -5 0 -10 -10 -10
-22z"/>
<path d="M5451 27304 c0 -11 3 -14 6 -6 3 7 2 16 -1 19 -3 4 -6 -2 -5 -13z"/>
<path d="M5930 27300 c0 -11 5 -20 10 -20 6 0 10 9 10 20 0 11 -4 20 -10 20
-5 0 -10 -9 -10 -20z"/>
<path d="M5978 27304 c-8 -8 3 -44 13 -44 5 0 9 11 9 25 0 24 -10 32 -22 19z"/>
<path d="M5315 27250 c-3 -5 -1 -10 4 -10 6 0 11 5 11 10 0 6 -2 10 -4 10 -3
0 -8 -4 -11 -10z"/>
<path d="M5260 27240 c0 -5 5 -10 10 -10 6 0 10 5 10 10 0 6 -4 10 -10 10 -5
0 -10 -4 -10 -10z"/>
<path d="M5860 27080 c0 -5 5 -10 10 -10 6 0 10 5 10 10 0 6 -4 10 -10 10 -5
0 -10 -4 -10 -10z"/>
<path d="M5740 26810 c0 -5 7 -10 15 -10 8 0 15 5 15 10 0 6 -7 10 -15 10 -8
0 -15 -4 -15 -10z"/>
<path d="M4812 26570 c0 -14 2 -19 5 -12 2 6 2 18 0 25 -3 6 -5 1 -5 -13z"/>
<path d="M4720 26490 c0 -5 4 -10 9 -10 6 0 13 5 16 10 3 6 -1 10 -9 10 -9 0
-16 -4 -16 -10z"/>
<path d="M5592 26430 c0 -14 2 -19 5 -12 2 6 2 18 0 25 -3 6 -5 1 -5 -13z"/>
<path d="M5591 26374 c0 -11 3 -14 6 -6 3 7 2 16 -1 19 -3 4 -6 -2 -5 -13z"/>
<path d="M4541 26084 c0 -11 3 -14 6 -6 3 7 2 16 -1 19 -3 4 -6 -2 -5 -13z"/>
<path d="M4510 26010 c0 -13 11 -13 30 0 12 8 11 10 -7 10 -13 0 -23 -4 -23
-10z"/>
<path d="M4510 25910 c0 -11 2 -20 4 -20 2 0 6 9 9 20 3 11 1 20 -4 20 -5 0
-9 -9 -9 -20z"/>
<path d="M5342 25796 c-1 -66 2 -116 6 -110 5 5 5 59 2 119 l-7 110 -1 -119z"/>
<path d="M5400 25845 c0 -8 5 -15 10 -15 6 0 10 7 10 15 0 8 -4 15 -10 15 -5
0 -10 -7 -10 -15z"/>
<path d="M4300 25580 c0 -5 5 -10 10 -10 6 0 10 5 10 10 0 6 -4 10 -10 10 -5
0 -10 -4 -10 -10z"/>
<path d="M5295 25555 c-4 -11 -15 -28 -23 -37 -18 -21 -5 -23 21 -3 12 8 17
22 15 37 -4 22 -5 22 -13 3z"/>
<path d="M5252 25470 c0 -14 2 -19 5 -12 2 6 2 18 0 25 -3 6 -5 1 -5 -13z"/>
<path d="M4235 25427 c4 -15 1 -30 -7 -38 -8 -8 -13 -31 -13 -51 2 -55 15 -60
15 -6 0 28 5 48 13 51 16 6 15 59 -2 65 -8 3 -10 -4 -6 -21z"/>
<path d="M5247 25375 c-4 -8 -2 -17 3 -20 6 -4 10 3 10 14 0 25 -6 27 -13 6z"/>
<path d="M5226 25261 c-4 -7 -5 -15 -2 -18 9 -9 19 4 14 18 -4 11 -6 11 -12 0z"/>
<path d="M5175 25230 c-3 -5 1 -10 9 -10 8 0 18 5 21 10 3 6 -1 10 -9 10 -8 0
-18 -4 -21 -10z"/>
<path d="M5220 25190 c-12 -8 -12 -10 3 -16 12 -4 16 -13 11 -26 -6 -19 -5
-19 16 -1 16 14 18 19 6 21 -8 2 -16 10 -18 17 -2 10 -8 12 -18 5z"/>
<path d="M4120 25025 c0 -8 5 -15 10 -15 6 0 10 7 10 15 0 8 -4 15 -10 15 -5
0 -10 -7 -10 -15z"/>
<path d="M5157 24834 c-10 -11 -8 -62 3 -69 13 -8 24 40 13 60 -5 8 -12 12
-16 9z"/>
<path d="M4055 24599 c-4 -6 -3 -15 3 -21 6 -6 11 -4 15 6 7 18 -9 31 -18 15z"/>
<path d="M4010 24500 c0 -5 5 -10 10 -10 6 0 10 5 10 10 0 6 -4 10 -10 10 -5
0 -10 -4 -10 -10z"/>
<path d="M4061 24404 c0 -11 3 -14 6 -6 3 7 2 16 -1 19 -3 4 -6 -2 -5 -13z"/>
<path d="M4155 24270 c-13 -5 -14 -9 -5 -9 8 0 24 4 35 9 13 5 14 9 5 9 -8 0
-24 -4 -35 -9z"/>
<path d="M4170 24190 c0 -5 -16 -10 -35 -10 -24 0 -35 -5 -35 -15 0 -8 9 -15
20 -15 11 0 20 5 20 10 0 6 6 10 14 10 7 0 19 7 26 15 9 10 9 15 1 15 -6 0
-11 -4 -11 -10z"/>
<path d="M4834 24105 c-4 -11 -12 -23 -17 -26 -5 -4 -8 -12 -5 -19 2 -8 11 -2
22 14 9 15 15 33 13 39 -3 7 -8 4 -13 -8z"/>
<path d="M4900 24109 c0 -5 5 -7 10 -4 6 3 10 8 10 11 0 2 -4 4 -10 4 -5 0
-10 -5 -10 -11z"/>
<path d="M4881 24074 c0 -11 3 -14 6 -6 3 7 2 16 -1 19 -3 4 -6 -2 -5 -13z"/>
<path d="M4701 24054 c0 -11 3 -14 6 -6 3 7 2 16 -1 19 -3 4 -6 -2 -5 -13z"/>
<path d="M4792 24030 c0 -14 2 -19 5 -12 2 6 2 18 0 25 -3 6 -5 1 -5 -13z"/>
<path d="M4722 23990 c0 -14 2 -19 5 -12 2 6 2 18 0 25 -3 6 -5 1 -5 -13z"/>
<path d="M4510 23970 c0 -5 5 -10 10 -10 6 0 10 5 10 10 0 6 -4 10 -10 10 -5
0 -10 -4 -10 -10z"/>
<path d="M4653 23945 c0 -22 2 -30 4 -17 2 12 2 30 0 40 -3 9 -5 -1 -4 -23z"/>
<path d="M4765 23970 c-3 -5 -1 -10 4 -10 6 0 11 5 11 10 0 6 -2 10 -4 10 -3
0 -8 -4 -11 -10z"/>
<path d="M4491 23813 c0 -57 3 -103 7 -103 5 0 7 39 5 88 -6 126 -11 132 -12
15z"/>
<path d="M4331 23693 c0 -30 3 -53 9 -53 6 0 10 -13 10 -30 0 -16 4 -30 8 -30
5 0 13 -12 19 -27 l11 -28 1 27 c1 15 -3 30 -9 33 -5 3 -10 17 -10 30 0 13 -5
25 -10 27 -6 2 -15 26 -19 53 l-9 50 -1 -52z"/>
<path d="M4383 23700 c0 -25 2 -35 4 -22 2 12 2 32 0 45 -2 12 -4 2 -4 -23z"/>
<path d="M4510 23671 c0 -31 15 -50 22 -29 6 18 -3 58 -13 58 -5 0 -9 -13 -9
-29z"/>
<path d="M4400 23620 c0 -11 4 -20 9 -20 5 0 7 9 4 20 -3 11 -7 20 -9 20 -2 0
-4 -9 -4 -20z"/>
<path d="M13300 28299 c-273 -16 -567 -55 -830 -110 -30 -6 -73 -15 -95 -19
-22 -5 -65 -16 -95 -24 -30 -8 -66 -18 -80 -21 -14 -4 -34 -10 -45 -15 -11 -4
-38 -13 -60 -18 -89 -25 -355 -112 -401 -132 -80 -36 -86 -38 -169 -70 -85
-33 -427 -200 -510 -250 -27 -16 -86 -50 -130 -75 -95 -54 -115 -66 -131 -81
-7 -6 -48 -33 -91 -60 -43 -27 -116 -77 -163 -111 -47 -35 -96 -71 -109 -81
-14 -9 -52 -40 -85 -68 -34 -27 -70 -57 -82 -65 -12 -8 -58 -48 -104 -89 -46
-41 -90 -80 -99 -86 -33 -24 -351 -349 -386 -395 -11 -15 -45 -54 -75 -87 -30
-33 -76 -89 -102 -124 -26 -34 -55 -72 -65 -83 -11 -11 -57 -74 -103 -140 -46
-66 -86 -122 -90 -125 -4 -3 -19 -27 -35 -55 -15 -27 -42 -71 -61 -96 -19 -26
-34 -50 -34 -54 0 -4 -8 -19 -19 -33 -10 -15 -38 -63 -61 -107 -23 -44 -50
-91 -59 -105 -10 -14 -33 -59 -53 -100 -19 -41 -56 -118 -80 -170 -61 -128
-73 -155 -98 -225 -12 -33 -25 -69 -30 -80 -9 -23 -37 -89 -52 -125 -6 -14
-14 -33 -19 -42 -5 -10 -9 -25 -9 -33 0 -8 -4 -23 -9 -33 -13 -25 -41 -121
-41 -143 0 -10 -4 -20 -9 -23 -5 -3 -11 -20 -14 -38 -5 -34 -12 -60 -42 -158
-9 -30 -19 -70 -22 -88 -3 -18 -9 -35 -14 -38 -5 -3 -9 -23 -9 -44 0 -21 -4
-41 -9 -44 -4 -3 -11 -27 -14 -53 -4 -27 -14 -93 -22 -148 -16 -99 -22 -146
-44 -340 -38 -336 -43 -788 -11 -1090 37 -347 60 -500 100 -655 5 -19 13 -53
19 -75 5 -22 18 -74 29 -115 12 -41 28 -102 37 -135 9 -33 20 -73 25 -90 10
-38 67 -200 85 -240 7 -16 27 -70 45 -120 17 -49 51 -132 76 -183 24 -50 44
-95 44 -98 0 -3 24 -53 53 -112 48 -96 72 -142 154 -290 12 -23 50 -85 83
-137 33 -51 69 -111 81 -132 12 -21 40 -63 63 -93 22 -30 59 -82 81 -115 22
-33 42 -62 45 -65 7 -7 111 -138 136 -171 71 -94 371 -416 485 -520 234 -214
462 -394 694 -549 105 -69 252 -160 261 -160 2 0 28 -16 58 -35 63 -40 359
-190 456 -230 36 -15 83 -35 105 -45 35 -15 87 -37 173 -71 12 -5 32 -13 45
-18 18 -7 136 -45 377 -120 195 -61 625 -145 885 -172 180 -18 503 -30 700
-24 258 7 428 23 679 65 l99 16 -54 45 c-30 25 -92 75 -139 111 -281 217 -630
574 -869 892 -307 409 -570 895 -719 1331 -32 93 -103 317 -112 350 -96 373
-138 640 -165 1052 -15 222 -15 264 0 510 19 317 27 385 75 655 20 117 63 317
80 373 5 17 13 48 19 70 24 89 121 376 159 470 212 529 477 972 841 1406 91
109 329 356 425 441 50 45 109 97 131 117 62 56 259 209 370 288 256 181 500
320 833 474 46 22 85 39 87 39 3 0 33 13 67 29 142 64 584 203 768 241 25 5
77 17 115 25 183 42 468 79 683 91 92 5 132 10 132 19 0 6 -15 24 -32 40 -18
15 -58 51 -88 79 -88 81 -289 243 -403 326 -27 19 -60 45 -75 56 -44 35 -308
202 -422 268 -94 54 -375 196 -483 245 -37 16 -337 135 -392 155 -30 11 -244
77 -285 88 -41 11 -74 20 -150 43 -83 25 -161 41 -385 80 -414 72 -823 97
-1215 74z m-3740 -2949 c0 -5 -4 -10 -10 -10 -5 0 -10 5 -10 10 0 6 5 10 10
10 6 0 10 -4 10 -10z m137 -92 c-3 -7 -5 -2 -5 12 0 14 2 19 5 13 2 -7 2 -19
0 -25z m-204 -8 c3 -11 1 -20 -4 -20 -5 0 -9 9 -9 20 0 11 2 20 4 20 2 0 6 -9
9 -20z m44 -2 c-3 -8 -6 -5 -6 6 -1 11 2 17 5 13 3 -3 4 -12 1 -19z m3 -69 c0
-11 -4 -17 -10 -14 -5 3 -10 13 -10 21 0 8 5 14 10 14 6 0 10 -9 10 -21z m90
-14 c0 -19 -4 -35 -10 -35 -11 0 -14 53 -3 63 11 12 13 8 13 -28z m-190 15
c-19 -13 -30 -13 -30 0 0 6 10 10 23 10 18 0 19 -2 7 -10z m50 -16 c0 -3 -7
-12 -15 -20 -16 -17 -18 -14 -9 10 6 15 24 23 24 10z m30 -75 c0 -16 -4 -29
-10 -29 -12 0 -24 45 -15 60 11 18 25 1 25 -31z m-70 -11 c0 -5 -4 -8 -10 -8
-5 0 -10 10 -10 23 0 18 2 19 10 7 5 -8 10 -18 10 -22z m26 -33 c9 -8 14 -25
11 -37 -3 -22 -4 -22 -11 -3 -4 11 -12 28 -17 38 -11 21 -3 22 17 2z m-54 -20
c3 -14 1 -25 -3 -25 -5 0 -9 11 -9 25 0 14 2 25 4 25 2 0 6 -11 8 -25z m120
-7 c-9 -9 -12 -7 -12 12 0 19 3 21 12 12 9 -9 9 -15 0 -24z m-162 3 c0 -17
-27 -37 -37 -27 -7 7 17 46 27 46 6 0 10 -9 10 -19z m-70 -21 c0 -5 -2 -10 -4
-10 -3 0 -8 5 -11 10 -3 6 -1 10 4 10 6 0 11 -4 11 -10z m101 -79 c-6 -10 -7
-21 -4 -25 3 -3 -1 -6 -10 -6 -10 0 -17 -8 -17 -20 0 -11 -4 -20 -10 -20 -5 0
-10 -9 -10 -20 0 -21 -15 -27 -25 -10 -3 6 -10 10 -15 10 -12 0 20 -62 43 -82
19 -17 18 -17 -5 -41 -75 -79 -90 -100 -76 -108 11 -7 10 -11 -2 -18 -8 -6
-11 -13 -8 -17 8 -8 38 20 38 35 0 6 7 11 15 11 8 0 15 9 15 19 0 10 7 22 16
25 8 3 12 11 9 17 -10 14 26 39 48 33 19 -6 24 12 5 19 -7 2 -10 7 -7 11 3 3
13 4 22 0 14 -5 14 -9 0 -39 -14 -30 -18 -32 -28 -18 -11 14 -12 14 -19 -2 -4
-11 -1 -22 6 -27 10 -8 10 -11 1 -15 -7 -2 -13 -11 -13 -19 0 -8 -7 -14 -15
-14 -9 0 -29 -16 -46 -35 -17 -19 -37 -35 -45 -35 -7 0 -18 -9 -24 -20 -13
-24 -30 -26 -30 -5 0 8 7 15 15 15 10 0 15 10 15 30 0 17 -5 30 -11 30 -14 0
-39 -25 -39 -39 0 -6 -9 -11 -19 -11 -11 0 -23 -5 -27 -11 -5 -9 1 -10 20 -5
24 6 28 3 41 -28 14 -32 18 -35 46 -29 l31 6 -25 -27 c-32 -35 -63 -34 -72 1
-6 25 -8 26 -17 10 -7 -13 -6 -22 2 -33 8 -9 9 -14 2 -14 -6 0 -25 -13 -43
-30 -23 -21 -30 -33 -23 -40 8 -8 15 -6 24 5 7 8 19 15 26 15 8 0 14 5 14 10
0 6 5 10 10 10 16 0 12 -27 -5 -34 -17 -6 -20 -42 -5 -51 6 -4 18 2 28 13 23
27 102 41 102 18 0 -9 -7 -16 -16 -16 -8 0 -40 -12 -70 -26 -30 -14 -61 -23
-69 -20 -8 3 -15 1 -15 -4 0 -12 -65 -24 -80 -15 -8 5 -7 12 5 25 10 11 16 35
15 66 -1 160 0 164 25 176 31 14 61 89 42 103 -12 9 -12 12 -1 23 7 6 16 12
19 12 10 0 35 28 35 39 0 6 5 11 10 11 14 0 12 38 -2 43 -10 3 -8 9 5 24 9 11
17 25 17 31 0 7 5 12 10 12 6 0 10 7 10 15 0 8 5 15 10 15 6 0 10 15 10 34 0
26 5 36 20 41 14 4 20 15 20 36 0 16 5 29 10 29 6 0 10 -13 10 -30 0 -16 -4
-30 -10 -30 -5 0 -10 -7 -10 -15 0 -8 -4 -15 -10 -15 -5 0 -10 -11 -10 -25 0
-25 14 -33 25 -15 3 6 15 10 26 10 21 0 25 10 8 27 -8 8 -5 13 10 18 22 7 27
20 12 30 -6 3 -3 18 7 35 l17 29 13 -24 c9 -18 10 -31 3 -44z m59 39 c0 -5 -4
-10 -10 -10 -5 0 -10 5 -10 10 0 6 5 10 10 10 6 0 10 -4 10 -10z m-180 -25 c0
-8 -4 -15 -10 -15 -5 0 -10 7 -10 15 0 8 5 15 10 15 6 0 10 -7 10 -15z m250
-23 c0 -29 -14 -20 -25 15 -5 18 -3 22 9 17 9 -3 16 -18 16 -32z m-46 -34 c-9
-14 -23 2 -17 18 4 12 8 13 14 3 4 -7 5 -17 3 -21z m-44 -15 c0 -7 -9 -13 -20
-13 -23 0 -26 14 -7 34 13 15 27 4 27 -21z m230 3 c0 -3 -4 -8 -10 -11 -5 -3
-10 -1 -10 4 0 6 5 11 10 11 6 0 10 -2 10 -4z m-460 -33 c0 -20 -3 -24 -11
-16 -7 7 -9 19 -6 27 10 24 17 19 17 -11z m300 13 c0 -17 -14 -29 -23 -20 -8
8 3 34 14 34 5 0 9 -6 9 -14z m-102 -8 c16 -16 15 -36 -2 -54 -18 -18 -30 -18
-45 0 -9 10 -8 16 4 26 8 7 15 19 15 26 0 17 12 18 28 2z m152 2 c0 -5 -4 -10
-10 -10 -5 0 -10 5 -10 10 0 6 5 10 10 10 6 0 10 -4 10 -10z m-83 -42 c-3 -8
-6 -5 -6 6 -1 11 2 17 5 13 3 -3 4 -12 1 -19z m-17 -48 c0 -5 -5 -10 -11 -10
-5 0 -7 5 -4 10 3 6 8 10 11 10 2 0 4 -4 4 -10z m50 -4 c0 -3 -4 -8 -10 -11
-5 -3 -10 -1 -10 4 0 6 5 11 10 11 6 0 10 -2 10 -4z m-320 -37 c0 -17 -29 -41
-41 -34 -7 5 -4 13 7 26 19 21 34 25 34 8z m287 -11 c-3 -8 -6 -5 -6 6 -1 11
2 17 5 13 3 -3 4 -12 1 -19z m-37 -114 c0 -9 -12 -27 -27 -40 -32 -27 -45 -31
-37 -10 3 8 0 17 -6 21 -18 11 -39 -27 -40 -72 0 -24 -2 -43 -5 -43 -2 0 -18
13 -34 29 -29 28 -29 30 -11 36 11 4 20 12 20 18 0 17 68 59 75 47 10 -17 33
-11 40 10 8 24 25 27 25 4z m-353 -36 c-3 -8 -6 -5 -6 6 -1 11 2 17 5 13 3 -3
4 -12 1 -19z m-55 -85 c7 -25 -1 -43 -18 -43 -16 0 -19 16 -4 25 5 3 7 12 3
20 -3 8 -1 15 5 15 5 0 12 -8 14 -17z m338 -13 c0 -5 8 -10 18 -11 12 0 10 -3
-7 -10 -13 -5 -34 -21 -46 -36 -13 -14 -28 -22 -34 -19 -15 10 -14 26 2 26 6
0 21 14 32 30 20 30 35 39 35 20z m-107 -64 c27 -21 20 -36 -18 -36 -27 0 -35
4 -35 18 0 34 22 41 53 18z m-253 -26 c0 -11 -4 -20 -10 -20 -5 0 -10 9 -10
20 0 11 5 20 10 20 6 0 10 -9 10 -20z m443 3 c-7 -2 -19 -2 -25 0 -7 3 -2 5
12 5 14 0 19 -2 13 -5z m-429 -38 c-4 -8 -16 -15 -28 -15 -21 1 -21 1 -2 15
25 19 37 19 30 0z m326 -5 c0 -5 -4 -10 -10 -10 -5 0 -10 5 -10 10 0 6 5 10
10 10 6 0 10 -4 10 -10z m-372 -124 c-30 -29 -43 -31 -33 -3 4 8 16 18 28 21
16 4 19 8 10 17 -9 9 -9 16 0 31 11 17 12 17 18 -9 4 -22 0 -34 -23 -57z m397
54 c4 -6 -12 -10 -41 -10 -27 0 -51 -6 -58 -13 -6 -8 -37 -22 -68 -31 -46 -14
-60 -15 -71 -5 -11 11 -10 16 5 31 22 22 27 22 50 2 16 -16 18 -16 24 0 3 9
17 16 33 16 14 0 33 5 41 10 20 13 77 13 85 0z m-276 -39 c12 -8 12 -13 -3
-35 -9 -15 -14 -31 -10 -37 3 -6 -3 -13 -15 -16 -12 -3 -21 -9 -21 -14 0 -17
-55 -59 -77 -59 -30 0 -29 14 2 34 14 9 25 26 25 37 0 12 8 23 19 26 13 3 17
11 13 25 -8 34 35 59 67 39z m194 -38 c-7 -2 -19 -2 -25 0 -7 3 -2 5 12 5 14
0 19 -2 13 -5z m-49 -9 c30 -12 5 -24 -49 -24 -33 0 -55 -5 -58 -12 -3 -7 -6
-4 -6 8 -1 11 2 24 6 27 8 9 86 9 107 1z m-304 -34 c0 -5 -4 -10 -10 -10 -5 0
-10 -9 -10 -20 0 -11 -4 -20 -10 -20 -14 0 -12 28 3 45 14 17 27 19 27 5z
m355 -39 c22 -6 -2 -9 -90 -13 -144 -5 -178 0 -120 19 41 13 153 10 210 -6z
m-405 -27 c0 -8 -5 -12 -10 -9 -6 4 -8 11 -5 16 9 14 15 11 15 -7z m300 -24
c0 -5 16 -10 35 -10 19 0 35 -4 35 -10 0 -5 -18 -10 -41 -10 -53 0 -48 -23 7
-31 21 -3 29 -7 17 -8 -50 -3 -76 -31 -28 -31 14 0 25 -6 25 -13 0 -10 23 -14
87 -16 48 -1 90 -4 93 -7 7 -7 -178 2 -217 11 -18 4 -44 4 -59 1 -21 -6 -24
-9 -14 -21 10 -12 9 -15 -4 -15 -35 0 -53 -18 -48 -48 3 -26 8 -30 34 -28 17
0 33 -5 35 -11 3 -9 -6 -13 -25 -13 -17 0 -32 -6 -35 -14 -4 -11 -18 -14 -44
-11 -21 1 -67 3 -102 4 -75 1 -71 13 12 30 31 7 57 17 57 22 0 5 4 9 9 9 5 0
7 -9 4 -21 -5 -16 -2 -20 12 -18 13 3 18 15 19 47 l2 42 -62 0 c-35 0 -74 -4
-88 -10 -24 -9 -25 -8 -14 10 7 11 20 20 30 20 9 0 23 7 32 15 11 11 32 15 80
13 41 -2 69 1 77 9 9 9 -1 11 -45 8 -50 -4 -56 -3 -56 15 0 17 6 19 48 16 26
-2 59 -9 75 -16 33 -16 50 -4 23 16 -17 12 -18 14 -3 14 9 0 17 7 17 16 0 15
-9 16 -75 10 -87 -8 -105 -2 -78 24 14 15 34 19 96 19 45 1 77 -3 77 -9z
m-228 -29 c-9 -2 -23 -12 -30 -22 -7 -11 -19 -19 -25 -18 -9 0 -9 2 1 6 6 2
12 12 12 20 0 24 31 43 46 29 9 -8 8 -12 -4 -15z m-72 -61 c0 -5 -7 -10 -15
-10 -8 0 -15 5 -15 10 0 6 7 10 15 10 8 0 15 -4 15 -10z m320 -79 c12 -24 -5
-50 -22 -33 -6 6 -8 12 -3 12 5 0 1 6 -10 13 -20 16 -12 39 11 30 8 -3 19 -13
24 -22z m70 -11 c0 -5 -4 -10 -10 -10 -5 0 -10 5 -10 10 0 6 5 10 10 10 6 0
10 -4 10 -10z m-307 -27 c-7 -2 -19 -2 -25 0 -7 3 -2 5 12 5 14 0 19 -2 13 -5z
m182 -3 c-28 -12 -55 -12 -55 0 0 6 17 10 38 9 30 0 33 -2 17 -9z m138 -17
c-7 -2 -19 -2 -25 0 -7 3 -2 5 12 5 14 0 19 -2 13 -5z m77 -23 c0 -5 -2 -10
-4 -10 -3 0 -8 5 -11 10 -3 6 -1 10 4 10 6 0 11 -4 11 -10z m-57 -31 c11 -10
16 -19 9 -19 -6 0 -14 5 -17 10 -3 6 -38 10 -76 10 -86 0 -85 14 1 17 49 1 67
-2 83 -18z m-160 -14 c19 -18 21 -95 3 -95 -9 0 -12 13 -11 40 2 34 -1 40 -17
40 -48 0 -69 -74 -24 -86 14 -3 27 -12 30 -20 4 -10 14 -12 30 -8 13 3 27 1
30 -5 7 -11 -5 -15 -36 -12 -10 1 -18 -4 -18 -13 0 -9 -8 -16 -19 -16 -28 0
-37 20 -12 27 30 8 26 26 -5 20 -16 -3 -28 0 -31 9 -3 8 -12 14 -20 14 -10 0
-13 6 -9 16 3 9 6 26 6 39 0 14 7 25 20 28 11 3 20 12 20 21 0 20 43 21 63 1z
m244 -1 c-3 -3 -12 -4 -19 -1 -8 3 -5 6 6 6 11 1 17 -2 13 -5z m-360 -19 c8
-23 1 -26 -50 -19 -57 8 -61 21 -9 27 20 2 41 4 45 5 4 1 10 -5 14 -13z m-127
-5 c0 -5 -9 -10 -20 -10 -11 0 -20 5 -20 10 0 6 9 10 20 10 11 0 20 -4 20 -10z
m300 0 c0 -5 -4 -10 -10 -10 -5 0 -10 5 -10 10 0 6 5 10 10 10 6 0 10 -4 10
-10z m-196 -39 c3 -4 0 -20 -7 -35 -10 -22 -18 -26 -59 -26 -26 0 -50 5 -53
10 -4 6 6 10 24 10 42 0 61 9 61 31 0 19 24 26 34 10z m216 -17 c0 -14 -4 -23
-10 -19 -5 3 -10 15 -10 26 0 10 5 19 10 19 6 0 10 -12 10 -26z m40 -34 c-19
-13 -30 -13 -30 0 0 6 10 10 23 10 18 0 19 -2 7 -10z m-210 -18 c-1 -8 -59
-35 -100 -47 -22 -7 -24 -6 -11 9 8 9 33 25 55 36 38 17 56 18 56 2z m227 -29
c-13 -13 -19 -14 -29 -5 -9 9 -7 12 10 12 12 0 22 5 22 12 0 6 3 8 7 4 4 -3
-1 -14 -10 -23z m90 21 c-3 -3 -12 -4 -19 -1 -8 3 -5 6 6 6 11 1 17 -2 13 -5z
m80 -26 c-3 -8 -6 -5 -6 6 -1 11 2 17 5 13 3 -3 4 -12 1 -19z m76 5 c-7 -2
-19 -2 -25 0 -7 3 -2 5 12 5 14 0 19 -2 13 -5z m-663 -23 c0 -5 -4 -10 -10
-10 -5 0 -10 5 -10 10 0 6 5 10 10 10 6 0 10 -4 10 -10z m210 3 c0 -8 -77 -43
-93 -43 -17 0 -5 20 21 33 29 16 72 22 72 10z m110 -1 c0 -12 -58 -34 -77 -29
-14 4 -12 5 5 6 12 0 25 8 28 16 6 15 44 22 44 7z m-6 -53 c-3 -5 -10 -7 -15
-3 -5 3 -7 10 -3 15 3 5 10 7 15 3 5 -3 7 -10 3 -15z m-231 4 c-7 -2 -21 -2
-30 0 -10 3 -4 5 12 5 17 0 24 -2 18 -5z m124 1 c-3 -3 -12 -4 -19 -1 -8 3 -5
6 6 6 11 1 17 -2 13 -5z m-70 -34 c-14 -11 -35 -20 -47 -20 -11 0 -18 -4 -15
-10 4 -6 -17 -10 -57 -9 -61 2 -62 2 -18 8 54 8 120 32 120 43 0 4 10 8 21 8
21 0 21 -1 -4 -20z m105 0 c-12 -11 -24 -20 -27 -20 -3 0 -27 -15 -53 -32 -68
-47 -108 -68 -115 -61 -9 9 2 23 19 23 8 0 40 20 72 45 31 25 65 45 75 45 9 0
17 5 17 10 0 6 8 10 17 10 14 0 14 -3 -5 -20z m80 -20 c-12 -11 -26 -20 -33
-20 -17 0 -171 -114 -199 -147 -35 -42 -110 -78 -110 -53 0 6 9 10 20 10 11 0
20 5 20 10 0 6 4 10 10 10 5 0 24 16 43 35 19 19 37 35 41 35 4 0 17 11 30 25
13 14 27 25 32 25 5 0 26 15 46 34 24 22 44 33 56 29 10 -2 24 3 31 11 8 9 18
16 24 16 6 0 1 -9 -11 -20z m91 -17 c-7 -2 -19 -2 -25 0 -7 3 -2 5 12 5 14 0
19 -2 13 -5z m160 0 c-7 -2 -19 -2 -25 0 -7 3 -2 5 12 5 14 0 19 -2 13 -5z
m-203 -17 c0 -3 -4 -8 -10 -11 -5 -3 -10 -1 -10 4 0 6 5 11 10 11 6 0 10 -2
10 -4z m147 -2 c-3 -3 -12 -4 -19 -1 -8 3 -5 6 6 6 11 1 17 -2 13 -5z m-67
-24 c0 -5 -2 -10 -4 -10 -3 0 -8 5 -11 10 -3 6 -1 10 4 10 6 0 11 -4 11 -10z
m-180 -35 c-7 -8 -19 -15 -26 -15 -8 0 -14 -4 -14 -9 0 -4 -20 -30 -45 -56
-76 -82 -91 -110 -131 -242 -2 -7 -9 -13 -16 -12 -10 0 -10 2 0 6 6 2 12 22
12 43 0 53 59 162 123 228 28 28 57 52 64 52 7 0 13 5 13 10 0 6 7 10 16 10
14 0 14 -3 4 -15z m-253 -11 c-3 -3 -12 -4 -19 -1 -8 3 -5 6 6 6 11 1 17 -2
13 -5z m313 -18 c0 -2 -7 -6 -15 -10 -8 -3 -15 -1 -15 4 0 6 7 10 15 10 8 0
15 -2 15 -4z m80 -26 c0 -5 -5 -10 -11 -10 -5 0 -7 5 -4 10 3 6 8 10 11 10 2
0 4 -4 4 -10z m-145 -28 c-17 -12 -65 -80 -65 -91 0 -6 -4 -11 -10 -11 -5 0
-10 -8 -10 -18 0 -10 -3 -22 -7 -26 -5 -4 -13 -38 -19 -74 l-11 -67 -2 73 c0
42 3 72 9 72 6 0 10 8 10 18 0 9 11 29 25 44 14 15 25 32 25 37 0 13 41 51 54
51 7 0 8 -3 1 -8z m57 -51 c-31 -33 -58 -58 -60 -56 -6 6 39 67 68 92 52 47
47 21 -8 -36z m178 52 c-8 -3 -17 -9 -20 -12 -19 -23 -60 -53 -60 -44 0 19 52
63 74 62 15 0 16 -2 6 -6z m-110 -87 c0 -3 -4 -8 -10 -11 -5 -3 -10 -1 -10 4
0 6 5 11 10 11 6 0 10 -2 10 -4z m79 -62 c-7 -8 -16 -32 -20 -52 l-7 -37 -1
36 c-1 41 31 116 37 86 2 -10 -2 -25 -9 -33z m-109 9 c0 -21 -3 -24 -9 -14 -5
8 -7 20 -4 28 8 21 13 15 13 -14z m263 -3 c-10 -17 -19 -26 -21 -20 -4 10 25
50 35 50 2 0 -4 -14 -14 -30z m-371 -7 c-3 -16 -7 -22 -10 -15 -4 13 4 42 11
42 2 0 2 -12 -1 -27z m88 -58 c0 -25 -4 -45 -10 -45 -11 0 -14 73 -3 83 11 12
13 8 13 -38z m247 -17 c-3 -7 -5 -2 -5 12 0 14 2 19 5 13 2 -7 2 -19 0 -25z
m230 0 c-3 -8 -6 -5 -6 6 -1 11 2 17 5 13 3 -3 4 -12 1 -19z m-477 -90 c0 -16
-3 -19 -11 -11 -6 6 -8 16 -5 22 11 17 16 13 16 -11z m-283 -10 c-3 -8 -6 -5
-6 6 -1 11 2 17 5 13 3 -3 4 -12 1 -19z m103 -15 c0 -7 -4 -13 -10 -13 -5 0
-10 12 -10 28 0 21 2 24 10 12 5 -8 10 -21 10 -27z m287 5 c-3 -7 -5 -2 -5 12
0 14 2 19 5 13 2 -7 2 -19 0 -25z"/>
<path d="M9385 24940 c3 -5 10 -10 16 -10 5 0 9 5 9 10 0 6 -7 10 -16 10 -8 0
-12 -4 -9 -10z"/>
<path d="M9270 24815 c0 -9 -12 -27 -26 -40 -22 -20 -24 -26 -11 -31 8 -3 27
2 40 11 27 17 43 45 27 45 -6 0 -10 7 -10 15 0 8 -4 15 -10 15 -5 0 -10 -7
-10 -15z"/>
<path d="M9277 24720 c-18 -18 -18 -19 3 -30 12 -6 24 -9 28 -6 3 3 0 6 -6 6
-7 0 -12 7 -12 15 0 18 12 19 28 3 7 -7 12 -9 12 -4 0 8 -26 37 -32 35 -2 0
-11 -9 -21 -19z"/>
<path d="M9250 24672 c0 -4 -16 -25 -35 -45 -31 -33 -46 -67 -29 -67 11 0 34
29 34 44 0 9 6 16 13 16 6 1 23 10 36 21 21 17 22 22 10 30 -17 11 -29 11 -29
1z"/>
<path d="M9360 24640 c0 -5 5 -10 10 -10 6 0 10 5 10 10 0 6 -4 10 -10 10 -5
0 -10 -4 -10 -10z"/>
<path d="M9146 24485 c6 -16 -13 -55 -34 -71 -13 -9 -13 -12 1 -17 22 -8 49
20 42 44 -4 11 -2 19 4 19 16 0 13 27 -3 33 -10 4 -13 1 -10 -8z"/>
<path d="M9113 24294 c-7 -19 0 -26 21 -18 20 8 21 20 1 28 -9 3 -18 -1 -22
-10z"/>
<path d="M9385 24800 c3 -5 10 -10 16 -10 5 0 9 5 9 10 0 6 -7 10 -16 10 -8 0
-12 -4 -9 -10z"/>
<path d="M16873 24005 c-3 -9 -3 -31 0 -49 5 -31 3 -34 -33 -45 -20 -6 -58
-11 -84 -11 -105 0 -404 -66 -611 -136 -554 -185 -949 -564 -1114 -1071 -21
-65 -46 -156 -55 -203 -9 -47 -21 -107 -26 -133 -6 -27 -10 -62 -10 -78 0 -22
-6 -32 -25 -39 -25 -10 -55 -4 -66 12 -3 5 -12 -11 -19 -36 -20 -74 1 -339 40
-486 21 -77 73 -247 87 -280 92 -224 237 -444 384 -585 284 -272 624 -419
1094 -475 44 -5 118 -14 165 -19 312 -39 841 15 1088 109 31 12 65 26 74 31
10 5 25 9 33 9 8 0 15 5 15 10 0 6 7 10 15 10 19 0 160 67 200 95 17 12 42 27
58 35 15 7 27 17 27 22 0 4 6 8 13 8 7 0 23 10 37 23 14 12 43 35 64 51 87 65
276 273 276 304 0 6 4 12 8 12 4 0 16 15 27 33 10 17 21 34 24 37 5 4 33 59
93 182 4 10 8 25 8 33 0 8 5 15 10 15 6 0 10 8 10 18 0 10 4 22 9 28 4 5 16
32 26 61 23 64 11 87 -39 78 -33 -7 -135 9 -291 44 -111 25 -199 40 -204 35
-3 -3 5 -24 18 -47 13 -23 33 -58 44 -77 l20 -36 -38 -99 c-132 -341 -370
-567 -723 -685 -166 -56 -276 -66 -632 -62 -124 2 -180 6 -170 12 8 5 66 10
129 10 l114 0 -32 30 c-17 17 -31 35 -31 40 0 6 -42 10 -105 10 -58 0 -126 5
-152 11 -27 6 -77 17 -113 25 -90 21 -139 34 -180 49 -125 47 -163 62 -230 93
-66 31 -153 85 -230 144 -90 69 -209 211 -269 320 -36 66 -107 242 -127 317
-78 284 -87 621 -25 921 20 94 98 306 144 390 42 78 136 196 202 257 264 242
621 363 1074 363 449 -1 788 -137 999 -403 63 -79 158 -238 174 -289 6 -22 18
-42 26 -45 12 -5 132 14 312 48 25 4 70 13 100 18 161 30 164 32 156 74 -11
55 -93 215 -159 309 -189 269 -441 451 -777 561 -178 58 -201 64 -295 76 -44
6 -116 15 -160 21 -44 5 -144 10 -223 10 -119 0 -144 -3 -149 -15z"/>
<path d="M21372 23974 l3 -47 -60 -13 c-33 -7 -78 -13 -100 -13 -22 -1 -89
-10 -150 -21 -155 -28 -159 -29 -270 -61 -388 -111 -673 -275 -920 -531 -211
-217 -347 -464 -413 -748 -6 -25 -15 -65 -21 -90 -10 -41 -23 -120 -38 -227
-6 -47 -6 -47 -75 -43 l-48 2 0 -113 c0 -62 5 -140 11 -173 24 -138 63 -313
76 -346 8 -19 19 -44 23 -55 4 -11 19 -45 33 -75 67 -146 99 -208 127 -240 24
-28 30 -41 25 -65 -3 -21 -2 -26 5 -15 8 13 12 11 30 -7 11 -12 20 -29 20 -37
0 -8 15 -25 33 -37 48 -34 59 -48 51 -61 -5 -7 -2 -9 8 -5 10 3 20 -3 28 -19
15 -28 97 -94 117 -94 7 0 13 -7 13 -15 0 -8 10 -20 23 -26 12 -7 29 -20 38
-31 9 -10 21 -18 26 -18 6 0 18 -9 28 -20 10 -11 22 -20 27 -20 14 0 158 -84
158 -92 0 -4 -13 -5 -30 -1 -21 4 -30 2 -30 -7 0 -9 13 -11 46 -7 49 5 100
-12 84 -29 -5 -5 4 -10 23 -11 18 -2 37 -10 44 -19 8 -11 20 -14 37 -10 14 3
28 2 31 -4 3 -5 16 -10 28 -10 l22 -1 -23 -12 c-32 -18 -18 -27 23 -14 27 8
39 7 59 -6 14 -10 32 -17 39 -17 8 0 17 -10 21 -22 4 -18 8 -20 18 -10 14 14
54 16 62 3 3 -5 23 -11 43 -15 21 -3 76 -12 123 -20 295 -53 679 -53 1020 0
184 29 423 92 525 138 17 8 59 26 95 41 160 67 328 170 467 287 272 229 479
584 552 945 60 295 44 684 -38 941 -107 333 -304 621 -566 824 -141 110 -332
218 -482 273 -54 20 -107 40 -118 44 -155 66 -420 109 -718 117 l-169 5 4 -47z
m283 -346 c443 -61 813 -277 1022 -596 141 -215 216 -443 242 -740 9 -95 12
-106 38 -130 l28 -26 3 87 c2 68 6 87 17 87 22 0 21 -441 0 -566 -35 -203 -92
-353 -189 -504 -92 -142 -288 -319 -459 -414 -106 -60 -377 -156 -439 -156
-15 0 -37 -4 -51 -9 -45 -18 -624 -18 -597 -1 8 5 57 10 108 10 54 0 92 4 92
10 0 6 -5 10 -11 10 -15 0 -39 26 -39 43 0 13 -22 16 -117 20 -65 3 -149 12
-188 20 -38 9 -90 20 -115 26 -25 5 -66 17 -90 26 -25 9 -56 19 -69 22 -13 3
-43 16 -68 29 -24 13 -51 24 -59 24 -7 0 -14 5 -14 10 0 6 -7 10 -16 10 -9 0
-18 9 -21 19 -3 12 -11 17 -19 14 -8 -3 -23 4 -33 16 -19 21 -36 27 -44 14 -2
-5 -2 -2 0 5 1 8 3 24 3 37 0 14 8 29 19 34 17 10 19 8 14 -27 -4 -30 -1 -39
16 -50 13 -7 21 -8 21 -2 0 5 11 10 25 10 18 0 25 5 25 20 0 11 -4 20 -10 20
-5 0 -10 -4 -10 -10 0 -5 -9 -10 -20 -10 -30 0 -25 13 25 58 25 23 45 44 45
47 -2 45 2 55 20 55 11 0 20 -4 20 -10 0 -5 -7 -10 -15 -10 -14 0 -21 -36 -16
-77 1 -7 -2 -13 -7 -13 -17 0 -21 -41 -5 -47 22 -9 45 21 49 63 2 21 8 40 13
43 5 4 7 25 4 49 -6 41 -17 54 -26 30 -2 -7 -8 -10 -12 -6 -4 4 1 15 11 25 12
13 19 14 22 5 5 -15 22 -16 22 -1 0 7 8 18 18 25 10 8 12 13 5 14 -7 0 -13 5
-13 11 0 6 6 9 13 6 9 -3 12 5 9 29 -3 20 -10 34 -18 34 -8 0 -14 8 -15 18 0
9 -2 28 -4 42 -2 14 -1 19 1 13 8 -19 24 -16 24 5 0 10 5 23 11 29 12 12 -4
53 -21 53 -6 0 -10 7 -10 15 0 9 -5 21 -10 28 -32 37 -80 107 -80 115 0 5 -11
30 -25 56 -22 42 -25 59 -25 152 0 57 4 112 9 122 26 51 40 92 31 92 -6 0 -10
-7 -10 -15 0 -8 -4 -15 -9 -15 -9 0 -15 -19 -35 -125 -24 -123 1 -218 95 -360
22 -33 39 -64 38 -69 0 -5 5 -13 13 -17 7 -5 9 -9 3 -9 -16 0 -29 12 -61 55
-16 22 -39 51 -51 65 -13 14 -23 32 -23 40 0 13 -1 13 -10 0 -7 -10 -6 -18 4
-25 7 -5 11 -16 9 -22 -3 -7 2 -16 11 -19 9 -3 16 -10 16 -14 0 -17 45 -79 58
-80 13 0 17 -20 4 -20 -12 0 -113 96 -111 106 3 18 -1 25 -11 19 -11 -7 15
-65 29 -65 4 0 8 -7 8 -16 0 -11 -7 -14 -21 -10 -24 6 -46 -10 -46 -35 0 -10
-11 -29 -25 -43 -14 -14 -25 -32 -25 -41 0 -20 -16 -19 -25 3 -6 15 -8 14 -16
-7 -12 -32 -1 -43 50 -47 39 -3 55 8 29 20 -10 5 -10 7 0 12 17 8 15 24 -5 40
-16 12 -16 13 -1 14 9 0 18 5 20 12 3 8 14 3 31 -14 30 -30 34 -44 15 -51 -10
-4 -9 -8 2 -16 8 -5 11 -13 7 -18 -5 -4 -12 -1 -17 7 -7 12 -13 9 -33 -14 -23
-27 -25 -27 -36 -10 -9 17 -12 17 -21 4 -6 -8 -8 -23 -6 -34 3 -10 0 -30 -6
-45 -13 -29 -15 -36 -17 -52 0 -5 -5 -8 -10 -5 -5 3 -7 37 -4 76 4 59 2 70
-11 70 -9 0 -16 -8 -16 -20 0 -11 -4 -20 -10 -20 -6 0 -6 9 0 26 15 38 12 54
-10 54 -13 0 -20 -7 -20 -20 0 -11 -4 -20 -10 -20 -5 0 -10 -7 -10 -15 0 -8
-11 -25 -25 -39 -14 -14 -25 -30 -25 -36 0 -5 -12 -10 -26 -10 -23 0 -26 -3
-22 -25 6 -30 -3 -32 -20 -5 -7 11 -19 20 -27 20 -8 0 -15 9 -15 20 0 17 5 19
24 14 29 -7 66 11 66 31 0 8 5 15 10 15 6 0 10 5 10 11 0 13 -25 39 -38 39 -6
0 -13 6 -16 13 -3 6 -3 0 0 -14 6 -30 -21 -70 -42 -62 -7 2 -21 0 -32 -6 -17
-9 -23 -6 -38 17 -9 15 -26 33 -36 40 -10 7 -18 19 -18 25 0 7 -11 21 -25 31
-14 10 -25 24 -25 29 0 6 -8 20 -18 31 -10 12 -25 37 -32 56 -7 19 -18 42 -25
50 -11 15 -30 55 -47 100 -6 14 -16 38 -24 53 -8 16 -14 37 -14 47 0 10 -5 22
-10 25 -7 4 -9 31 -6 68 3 34 3 54 0 45 -13 -42 -22 -10 -28 105 -15 250 5
620 35 652 5 5 9 26 9 47 0 21 5 38 10 38 6 0 10 6 10 13 0 15 50 147 84 221
25 55 131 203 176 246 46 43 94 85 135 115 22 17 42 32 45 35 3 3 19 12 35 20
17 8 44 24 60 36 112 78 392 176 580 202 28 4 57 12 65 17 36 24 353 26 515 3z
m-921 -2203 c35 -34 42 -45 28 -45 -10 0 -24 11 -30 25 -7 14 -23 30 -37 37
-14 6 -25 15 -25 20 0 18 21 6 64 -37z m-24 -38 c0 -16 -35 -1 -38 16 -3 16
-1 17 17 5 12 -7 21 -17 21 -21z m35 -37 c30 0 27 -48 -5 -80 -16 -16 -18 -16
-29 1 -15 25 -14 30 3 23 12 -5 14 3 11 38 -1 23 -1 37 2 31 3 -7 11 -13 18
-13z m-68 -112 c-3 -7 -5 -2 -5 12 0 14 2 19 5 13 2 -7 2 -19 0 -25z m-77 -8
c0 -10 -4 -22 -10 -25 -6 -4 -10 7 -10 25 0 18 4 29 10 25 6 -3 10 -15 10 -25z
m-137 4 c11 -4 7 -13 -19 -38 -19 -18 -34 -39 -34 -45 0 -7 -7 -19 -15 -27
-13 -14 -17 -14 -30 0 -21 20 -19 26 8 23 17 -1 24 5 32 31 5 17 15 32 22 32
7 0 13 7 13 15 0 17 2 17 23 9z m271 -15 c-3 -5 -10 -7 -15 -3 -5 3 -7 10 -3
15 3 5 10 7 15 3 5 -3 7 -10 3 -15z m-54 -76 c0 -19 -3 -24 -10 -17 -6 6 -8
18 -4 27 9 24 14 21 14 -10z m-60 4 c0 -20 -37 -51 -45 -38 -3 6 1 11 9 11 9
0 16 9 16 20 0 11 5 20 10 20 6 0 10 -6 10 -13z m-70 -12 c0 -17 -2 -18 -24
-9 -23 9 -20 24 4 24 11 0 20 -7 20 -15z m-117 -34 c-3 -11 -11 -17 -19 -14
-10 4 -11 8 -1 19 17 19 26 17 20 -5z m60 12 c-7 -2 -19 -2 -25 0 -7 3 -2 5
12 5 14 0 19 -2 13 -5z m12 -66 c1 -32 -6 -34 -25 -7 -8 11 -21 20 -30 21 -8
1 -4 5 10 9 36 11 45 7 45 -23z m41 -34 c-11 -11 -19 6 -11 24 8 17 8 17 12 0
3 -10 2 -21 -1 -24z"/>
<path d="M20751 22052 c-8 -15 -17 -35 -22 -44 -5 -10 -9 -27 -9 -37 0 -11 -4
-23 -10 -26 -13 -8 -13 -156 -1 -187 5 -13 19 -49 31 -80 12 -32 26 -58 31
-58 5 0 9 -9 9 -20 0 -11 5 -20 10 -20 6 0 10 -7 10 -15 0 -7 6 -18 13 -22 6
-4 17 -17 23 -27 14 -26 34 -32 34 -11 0 10 -11 26 -25 37 -14 11 -25 26 -25
35 0 9 -8 23 -18 32 -21 19 -61 127 -73 196 -9 55 -1 183 12 191 5 3 9 15 9
28 0 12 5 27 12 34 6 6 9 14 7 17 -3 3 -11 -7 -18 -23z"/>
<path d="M20831 22064 c0 -11 3 -14 6 -6 3 7 2 16 -1 19 -3 4 -6 -2 -5 -13z"/>
<path d="M20882 22040 c0 -14 2 -19 5 -12 2 6 2 18 0 25 -3 6 -5 1 -5 -13z"/>
<path d="M20808 22030 c-4 -14 -16 -58 -28 -99 -16 -58 -19 -80 -10 -104 5
-16 10 -42 10 -56 0 -28 49 -154 62 -159 5 -2 8 -10 8 -18 0 -8 9 -23 20 -34
28 -28 26 -2 -4 52 -49 89 -68 163 -67 264 0 56 5 101 11 109 6 8 10 26 8 42
l-3 28 -7 -25z"/>
<path d="M20536 21993 c-14 -52 -17 -83 -7 -83 10 0 15 15 24 73 5 30 -9 38
-17 10z"/>
<path d="M20847 21955 c-9 -31 -17 -77 -17 -103 0 -45 22 -125 40 -147 4 -5
10 -21 13 -35 3 -14 3 -5 0 20 -3 25 -6 107 -7 183 0 75 -3 137 -6 137 -3 0
-14 -25 -23 -55z"/>
<path d="M20377 21983 c-4 -3 -7 -16 -6 -27 0 -19 1 -19 10 3 10 24 8 36 -4
24z"/>
<path d="M20421 21934 c0 -11 3 -14 6 -6 3 7 2 16 -1 19 -3 4 -6 -2 -5 -13z"/>
<path d="M20581 21856 c0 -59 3 -96 8 -90 5 5 6 48 1 99 l-7 90 -2 -99z"/>
<path d="M20217 21923 c-11 -10 -8 -141 2 -148 6 -3 9 27 8 75 -1 44 -2 80 -3
80 0 0 -4 -3 -7 -7z"/>
<path d="M20901 21850 c0 -45 3 -59 9 -45 12 27 12 77 0 95 -7 10 -10 -5 -9
-50z"/>
<path d="M20465 21878 c-4 -10 -4 -26 0 -35 8 -17 8 -17 12 0 3 9 3 25 0 35
-4 16 -4 16 -12 0z"/>
<path d="M20261 21854 c0 -11 3 -14 6 -6 3 7 2 16 -1 19 -3 4 -6 -2 -5 -13z"/>
<path d="M20525 21773 c4 -32 13 -65 20 -73 7 -8 15 -22 18 -30 10 -27 8 25
-2 56 -5 16 -12 46 -16 67 -10 62 -28 45 -20 -20z"/>
<path d="M20422 21780 c0 -19 2 -27 5 -17 2 9 2 25 0 35 -3 9 -5 1 -5 -18z"/>
<path d="M20371 21768 c-1 -20 4 -40 9 -43 12 -7 12 32 0 60 -7 16 -9 13 -9
-17z"/>
<path d="M20242 21715 c0 -16 2 -22 5 -12 2 9 2 23 0 30 -3 6 -5 -1 -5 -18z"/>
<path d="M20492 21715 c0 -16 2 -22 5 -12 2 9 2 23 0 30 -3 6 -5 -1 -5 -18z"/>
<path d="M20512 21660 c0 -14 2 -19 5 -12 2 6 2 18 0 25 -3 6 -5 1 -5 -13z"/>
<path d="M20582 21640 c0 -14 2 -19 5 -12 2 6 2 18 0 25 -3 6 -5 1 -5 -13z"/>
<path d="M20530 21623 c0 -10 11 -30 25 -45 14 -15 25 -34 25 -43 0 -8 4 -15
9 -15 5 0 12 -8 14 -17 4 -16 5 -16 6 -1 1 20 -37 88 -50 88 -5 0 -9 9 -9 19
0 11 -4 23 -10 26 -5 3 -10 -2 -10 -12z"/>
<path d="M20370 21620 c0 -5 5 -10 10 -10 6 0 10 5 10 10 0 6 -4 10 -10 10 -5
0 -10 -4 -10 -10z"/>
<path d="M20491 21594 c0 -11 3 -14 6 -6 3 7 2 16 -1 19 -3 4 -6 -2 -5 -13z"/>
<path d="M20511 21563 c-1 -13 3 -23 8 -23 5 0 12 -10 16 -22 7 -21 7 -22 12
-4 3 11 -1 24 -9 30 -8 6 -17 18 -21 26 -4 10 -6 8 -6 -7z"/>
<path d="M20370 21541 c0 -5 5 -13 10 -16 6 -3 10 -2 10 4 0 5 -4 13 -10 16
-5 3 -10 2 -10 -4z"/>
<path d="M20465 21485 c-5 -11 -13 -23 -19 -27 -16 -11 6 -10 22 1 8 5 12 17
10 27 -5 18 -5 18 -13 -1z"/>
<path d="M20523 21482 c-10 -7 -10 -12 0 -27 8 -10 19 -15 26 -11 8 6 9 12 2
20 -6 7 -8 16 -4 19 9 10 -9 8 -24 -1z"/>
<path d="M20260 21449 c0 -5 5 -7 10 -4 6 3 10 8 10 11 0 2 -4 4 -10 4 -5 0
-10 -5 -10 -11z"/>
<path d="M20358 21433 c13 -5 17 -33 4 -33 -4 0 -13 5 -20 12 -7 7 -12 9 -12
4 0 -4 7 -15 16 -23 13 -13 17 -14 24 -3 7 11 11 11 24 1 14 -11 16 -11 16 3
0 23 -24 46 -47 45 -10 0 -13 -3 -5 -6z"/>
<path d="M20510 21420 c0 -11 -4 -20 -10 -20 -5 0 -10 -5 -10 -12 0 -9 3 -9
12 0 7 7 20 12 30 12 24 0 23 12 -2 28 -18 11 -20 10 -20 -8z"/>
<path d="M20857 21434 c-9 -10 4 -34 19 -34 8 0 14 4 14 9 0 12 -26 32 -33 25z"/>
<path d="M20241 21415 c-1 -13 19 -35 31 -35 4 0 8 5 8 10 0 6 -6 10 -14 10
-8 0 -17 6 -19 13 -3 6 -6 7 -6 2z"/>
<path d="M20600 21390 c0 -5 5 -10 10 -10 14 0 12 -28 -2 -33 -7 -2 -10 -8 -6
-12 7 -7 38 17 38 30 0 8 -26 35 -34 35 -3 0 -6 -4 -6 -10z"/>
<path d="M20830 21381 c0 -13 26 -32 33 -24 8 7 -11 33 -24 33 -5 0 -9 -4 -9
-9z"/>
<path d="M20830 21220 c0 -5 -6 -10 -13 -10 -8 0 -14 -12 -14 -30 0 -36 7 -37
33 -9 13 15 15 23 7 26 -7 2 -9 11 -6 19 3 8 2 14 -1 14 -3 0 -6 -4 -6 -10z"/>
<path d="M20690 20956 c0 -8 5 -18 10 -21 6 -3 10 3 10 14 0 12 -4 21 -10 21
-5 0 -10 -6 -10 -14z"/>
<path d="M20732 20943 c5 -25 28 -28 28 -4 0 12 -6 21 -16 21 -9 0 -14 -7 -12
-17z"/>
<path d="M20730 21320 c0 -5 7 -10 15 -10 8 0 15 5 15 10 0 6 -7 10 -15 10 -8
0 -15 -4 -15 -10z"/>
<path d="M24865 23965 c-22 -10 -79 -14 -214 -15 l-184 0 24 -22 c51 -47 52
-53 19 -89 l-30 -33 0 -1600 0 -1600 -20 22 c-20 21 -20 35 -20 991 0 766 3
971 13 975 10 5 10 7 0 12 -10 4 -13 138 -13 617 0 601 0 612 -20 625 -20 12
-20 10 -20 -1631 0 -1636 0 -1644 -21 -1707 -17 -51 -18 -65 -7 -71 17 -11
539 -11 556 -1 10 7 12 368 10 1773 -3 1756 -3 1764 -23 1766 -11 1 -33 -5
-50 -12z"/>
<path d="M26515 23967 c-13 -8 -89 -14 -224 -17 l-204 -5 32 -34 c17 -18 31
-36 31 -40 0 -4 -11 -18 -25 -31 l-25 -23 0 -1593 c0 -1412 -2 -1593 -15
-1588 -13 5 -15 123 -15 979 0 769 3 975 13 979 10 5 10 7 0 12 -10 4 -13 136
-13 610 0 530 -2 604 -15 604 -8 0 -15 7 -15 15 0 8 -4 15 -10 15 -7 0 -10
-213 -10 -619 0 -486 -3 -621 -12 -625 -10 -5 -10 -7 0 -12 9 -4 12 -210 12
-979 0 -769 -3 -975 -12 -979 -10 -5 -10 -7 0 -12 17 -8 15 -64 -3 -83 -8 -9
-17 -35 -21 -58 -6 -38 -4 -43 17 -48 13 -3 137 -4 274 -3 l250 3 3 1388 c1
763 5 1387 10 1387 17 -1 1 18 357 -410 72 -86 165 -199 208 -251 43 -52 107
-128 142 -169 107 -128 319 -381 345 -414 37 -45 825 -992 875 -1051 40 -47
242 -293 344 -417 31 -39 55 -59 76 -63 17 -3 152 -4 300 -3 l270 3 3 1768 c2
1566 0 1768 -13 1773 -8 4 -33 -1 -55 -10 -31 -12 -77 -16 -200 -16 -136 0
-160 -2 -160 -15 0 -8 9 -15 20 -15 15 0 20 -7 20 -25 0 -14 6 -25 13 -25 6 0
3 -6 -8 -12 -48 -26 -45 40 -45 -1418 l1 -1375 -28 2 c-125 11 -163 17 -151
24 7 5 25 9 41 9 15 0 27 5 27 10 0 6 -4 10 -9 10 -5 0 -14 20 -20 44 -12 50
-34 79 -266 357 -88 105 -200 239 -248 298 -49 58 -98 117 -110 131 -12 14
-40 48 -62 75 -22 28 -43 52 -46 55 -6 5 -122 145 -334 400 -71 86 -199 240
-284 341 -84 101 -161 193 -170 204 -9 11 -61 74 -116 139 -55 66 -158 190
-230 276 -71 86 -186 224 -255 306 -69 82 -140 168 -158 191 -35 45 -60 53
-97 30z"/>
<path d="M31055 23965 c-22 -10 -78 -14 -207 -15 -98 0 -178 -4 -178 -9 0 -4
11 -17 25 -27 30 -23 32 -54 5 -79 -20 -18 -20 -31 -20 -1622 l0 -1603 -20 20
c-20 20 -20 33 -20 989 0 766 3 971 13 975 10 5 10 7 0 12 -10 4 -13 136 -13
610 0 343 -4 604 -9 604 -5 0 -13 10 -17 23 -5 12 -10 -244 -11 -602 -3 -484
-6 -627 -16 -634 -9 -7 -9 -10 1 -14 9 -4 12 -209 12 -978 0 -769 -3 -975 -12
-979 -10 -5 -10 -7 0 -12 18 -9 14 -56 -8 -84 -11 -14 -20 -41 -20 -62 0 -31
4 -39 23 -43 12 -3 139 -4 282 -3 l260 3 0 1770 c0 1763 0 1770 -20 1772 -11
1 -33 -5 -50 -12z"/>
<path d="M33950 23965 c-25 -10 -92 -14 -237 -14 -213 -1 -227 -4 -178 -43 28
-22 32 -46 9 -55 -13 -5 -96 -166 -209 -408 -18 -38 -62 -131 -98 -205 -35
-74 -113 -236 -172 -360 -112 -235 -137 -288 -343 -715 -68 -143 -142 -298
-164 -345 -22 -47 -95 -197 -161 -335 -66 -137 -139 -290 -162 -340 -24 -49
-71 -148 -105 -220 -34 -71 -81 -171 -105 -220 -23 -50 -48 -95 -56 -102 -8
-6 -63 -37 -124 -68 -115 -59 -144 -79 -131 -92 4 -5 134 -9 289 -11 219 -2
286 0 298 10 9 7 43 74 74 148 32 74 61 140 66 145 4 6 31 64 59 130 29 66 71
161 95 210 23 50 60 131 81 180 21 50 56 126 78 170 l41 80 923 3 c746 2 926
0 936 -11 7 -7 39 -67 71 -132 63 -132 102 -213 259 -539 58 -120 106 -220
106 -222 0 -12 75 -160 84 -166 16 -11 618 -10 635 1 10 7 2 30 -42 112 -30
57 -131 255 -225 439 -93 184 -225 443 -292 575 -67 132 -191 375 -275 540
-84 165 -201 395 -260 510 -59 116 -189 370 -288 565 -387 760 -405 795 -424
797 -10 1 -34 -4 -53 -12z m-228 -412 c8 -21 37 -92 63 -158 59 -150 64 -161
113 -265 22 -47 54 -119 72 -160 18 -41 59 -129 90 -195 32 -66 68 -142 80
-170 13 -27 51 -110 86 -182 35 -73 64 -135 64 -138 0 -3 36 -80 80 -171 44
-90 80 -169 80 -173 0 -7 38 -29 103 -59 4 -2 7 12 7 32 0 63 18 47 24 -22 13
-148 15 -137 -19 -133 -16 2 -394 6 -838 8 -529 2 -806 7 -802 13 4 6 283 10
787 10 l781 0 -37 35 -37 35 -705 0 c-467 0 -712 3 -725 10 -10 6 -19 18 -19
28 0 9 27 76 61 147 33 72 87 186 119 255 31 69 83 178 114 243 31 65 56 120
56 122 0 2 30 65 66 141 116 243 206 475 260 669 14 50 27 96 29 103 8 24 31
12 47 -25z"/>
<path d="M37100 23967 c-17 -8 -132 -14 -362 -17 l-338 -5 30 -32 c17 -18 30
-36 30 -41 0 -4 -13 -22 -30 -39 l-30 -31 -3 -1593 -2 -1594 -3 1596 -2 1596
-25 27 c-13 14 -29 26 -35 26 -7 0 -10 -506 -10 -1647 0 -1382 -3 -1658 -14
-1708 -11 -45 -12 -62 -3 -67 17 -11 525 -10 532 1 3 5 5 663 5 1463 0 799 3
1470 6 1491 4 20 10 37 14 37 12 0 65 -115 140 -305 14 -34 47 -111 100 -230
11 -25 38 -89 59 -143 21 -53 52 -126 68 -162 17 -36 54 -123 83 -194 28 -72
62 -153 75 -181 13 -28 45 -102 71 -165 44 -109 56 -137 104 -245 11 -25 38
-90 60 -145 40 -101 60 -148 111 -257 16 -34 29 -65 29 -68 0 -4 6 -21 14 -38
8 -18 21 -50 29 -72 8 -22 26 -65 40 -95 71 -157 93 -209 113 -268 9 -24 31
-78 51 -120 19 -43 39 -86 44 -97 4 -11 19 -45 32 -75 13 -30 27 -67 30 -82
15 -58 16 -58 287 -58 289 0 254 -15 316 135 20 50 49 117 64 150 15 33 51
116 80 185 29 69 65 152 80 185 15 33 50 114 78 180 28 67 64 150 80 185 16
36 52 119 80 185 28 67 64 150 80 187 17 36 51 115 76 174 24 60 60 143 79
184 19 41 55 125 80 185 25 61 61 144 80 185 19 41 55 125 80 185 25 61 63
149 84 195 22 47 61 137 87 200 67 163 109 245 126 248 40 7 40 2 40 -1444 -1
-807 -5 -1393 -10 -1399 -5 -6 -12 -30 -16 -53 -6 -37 -4 -42 17 -47 13 -3
137 -4 274 -3 l250 3 3 1768 c2 1950 8 1794 -60 1766 -24 -10 -113 -15 -323
-19 l-290 -5 33 -29 c34 -31 40 -50 19 -63 -23 -13 -43 -52 -105 -198 -78
-185 -308 -722 -387 -905 -35 -80 -75 -174 -90 -210 -15 -36 -42 -99 -60 -140
-18 -41 -65 -151 -105 -245 -40 -93 -78 -183 -86 -200 -20 -46 -169 -394 -229
-537 -49 -117 -74 -173 -96 -223 -5 -11 -42 -101 -83 -200 l-74 -180 -33 2
c-124 10 -161 16 -148 24 8 5 28 9 44 9 27 1 28 2 13 14 -10 7 -18 22 -18 32
-1 30 -79 247 -128 355 -11 24 -43 103 -72 174 -49 124 -60 149 -96 231 -20
45 -150 359 -221 534 -30 74 -63 153 -73 176 -10 22 -51 119 -90 215 -40 95
-82 197 -95 224 -12 28 -44 104 -70 170 -26 66 -53 134 -61 150 -15 33 -139
329 -261 625 -42 102 -83 195 -91 208 -16 24 -34 27 -72 9z m2957 -2654 c-1
-390 -2 -71 -2 707 0 778 1 1097 2 708 2 -390 2 -1026 0 -1415z"/>
<path d="M42310 23950 l-735 -5 33 -29 c37 -34 40 -51 12 -66 -11 -6 -20 -17
-20 -25 0 -8 -4 -15 -10 -15 -7 0 -10 -540 -10 -1600 0 -1060 -3 -1600 -10
-1600 -7 0 -10 540 -10 1601 l0 1601 -29 29 c-16 16 -32 29 -35 29 -3 0 -6
-744 -6 -1653 0 -1212 -3 -1669 -12 -1711 -9 -48 -9 -59 3 -67 16 -10 518 -13
543 -3 14 6 16 77 16 706 0 463 3 706 10 719 10 18 29 19 698 19 776 0 937 10
1190 70 23 5 59 14 80 18 221 51 436 175 570 332 121 141 178 253 233 455 20
72 18 352 -3 425 -83 288 -261 502 -520 624 -75 36 -225 86 -257 86 -9 0 -21
4 -26 9 -6 5 -28 12 -50 15 -136 19 -162 24 -176 30 -22 10 -602 12 -1479 6z
m768 -87 c-10 -2 -26 -2 -35 0 -10 3 -2 5 17 5 19 0 27 -2 18 -5z m479 -304
c150 -12 249 -36 347 -85 164 -83 245 -172 330 -366 9 -20 16 -47 16 -61 0
-14 5 -29 10 -32 6 -3 10 -21 10 -40 0 -40 8 -65 22 -65 6 0 21 -11 34 -26
l24 -25 2 98 c1 80 3 65 10 -82 11 -198 5 -249 -40 -340 -52 -107 -133 -187
-255 -253 -113 -61 -221 -86 -471 -106 -221 -18 -315 -7 -316 37 0 4 -7 7 -15
7 -8 0 -15 9 -15 20 0 20 -7 20 -594 20 l-594 0 -11 31 c-15 43 -15 1232 -1
1260 10 18 29 19 695 19 391 0 739 -5 812 -11z"/>
<path d="M28940 22558 l0 -1315 21 -27 c11 -14 25 -26 30 -26 11 0 12 2620 1
2635 -4 6 -17 19 -29 29 l-23 19 0 -1315z"/>
<path d="M19115 21250 c-3 -5 -1 -10 4 -10 6 0 11 5 11 10 0 6 -2 10 -4 10 -3
0 -8 -4 -11 -10z"/>
<path d="M19250 21249 c0 -5 5 -7 10 -4 6 3 10 8 10 11 0 2 -4 4 -10 4 -5 0
-10 -5 -10 -11z"/>
<path d="M19450 21116 c0 -9 40 -13 46 -5 3 5 -6 9 -20 9 -14 0 -26 -2 -26 -4z"/>
<path d="M18950 21090 c0 -5 5 -10 10 -10 6 0 10 5 10 10 0 6 -4 10 -10 10 -5
0 -10 -4 -10 -10z"/>
<path d="M19435 21070 c-3 -5 1 -10 10 -10 9 0 13 5 10 10 -3 6 -8 10 -10 10
-2 0 -7 -4 -10 -10z"/>
<path d="M18752 20985 c0 -16 2 -22 5 -12 2 9 2 23 0 30 -3 6 -5 -1 -5 -18z"/>
<path d="M19540 20981 c0 -6 5 -13 10 -16 6 -3 10 1 10 9 0 9 -4 16 -10 16 -5
0 -10 -4 -10 -9z"/>
<path d="M18592 20895 c0 -16 2 -22 5 -12 2 9 2 23 0 30 -3 6 -5 -1 -5 -18z"/>
<path d="M19115 20910 c-3 -5 -1 -10 4 -10 6 0 11 5 11 10 0 6 -2 10 -4 10 -3
0 -8 -4 -11 -10z"/>
<path d="M19660 20900 c0 -5 5 -10 10 -10 6 0 10 5 10 10 0 6 -4 10 -10 10 -5
0 -10 -4 -10 -10z"/>
<path d="M19705 20900 c3 -5 10 -10 16 -10 5 0 9 5 9 10 0 6 -7 10 -16 10 -8
0 -12 -4 -9 -10z"/>
<path d="M18771 20860 l1 -45 11 33 c7 24 7 36 -1 44 -9 9 -12 1 -11 -32z"/>
<path d="M19071 20874 c0 -11 3 -14 6 -6 3 7 2 16 -1 19 -3 4 -6 -2 -5 -13z"/>
<path d="M18982 20825 c0 -16 2 -22 5 -12 2 9 2 23 0 30 -3 6 -5 -1 -5 -18z"/>
<path d="M18913 20795 c0 -22 2 -30 4 -17 2 12 2 30 0 40 -3 9 -5 -1 -4 -23z"/>
<path d="M19575 20820 c-3 -5 1 -10 10 -10 9 0 13 5 10 10 -3 6 -8 10 -10 10
-2 0 -7 -4 -10 -10z"/>
<path d="M19772 20821 c2 -7 7 -12 11 -12 12 1 9 15 -3 20 -7 2 -11 -2 -8 -8z"/>
<path d="M19815 20821 c-8 -14 10 -22 30 -15 13 5 14 8 3 15 -17 11 -26 11
-33 0z"/>
<path d="M18677 20795 c-4 -11 -10 -27 -14 -35 -4 -10 -1 -10 11 3 10 9 16 25
14 35 -3 15 -5 15 -11 -3z"/>
<path d="M19435 20770 c-3 -5 -1 -10 4 -10 6 0 11 5 11 10 0 6 -2 10 -4 10 -3
0 -8 -4 -11 -10z"/>
<path d="M19590 20770 c0 -5 5 -10 10 -10 6 0 10 5 10 10 0 6 -4 10 -10 10 -5
0 -10 -4 -10 -10z"/>
<path d="M19730 20770 c0 -5 7 -10 16 -10 8 0 12 5 9 10 -3 6 -10 10 -16 10
-5 0 -9 -4 -9 -10z"/>
<path d="M18752 20730 c0 -19 2 -27 5 -17 2 9 2 25 0 35 -3 9 -5 1 -5 -18z"/>
<path d="M19051 20734 c0 -11 3 -14 6 -6 3 7 2 16 -1 19 -3 4 -6 -2 -5 -13z"/>
<path d="M19117 20735 c-4 -8 -2 -17 3 -20 6 -4 10 3 10 14 0 25 -6 27 -13 6z"/>
<path d="M18661 20724 c0 -11 3 -14 6 -6 3 7 2 16 -1 19 -3 4 -6 -2 -5 -13z"/>
<path d="M19275 20731 c-3 -5 -1 -12 5 -16 5 -3 10 1 10 9 0 18 -6 21 -15 7z"/>
<path d="M18913 20655 c0 -38 2 -53 4 -32 2 20 2 52 0 70 -2 17 -4 1 -4 -38z"/>
<path d="M18842 20690 c0 -14 2 -19 5 -12 2 6 2 18 0 25 -3 6 -5 1 -5 -13z"/>
<path d="M18610 20680 c0 -5 5 -10 11 -10 5 0 7 5 4 10 -3 6 -8 10 -11 10 -2
0 -4 -4 -4 -10z"/>
<path d="M19003 20610 c0 -36 2 -50 4 -32 2 17 2 47 0 65 -2 17 -4 3 -4 -33z"/>
<path d="M20075 20660 c-3 -5 -1 -10 4 -10 6 0 11 5 11 10 0 6 -2 10 -4 10 -3
0 -8 -4 -11 -10z"/>
<path d="M18591 20644 c0 -11 3 -14 6 -6 3 7 2 16 -1 19 -3 4 -6 -2 -5 -13z"/>
<path d="M18817 20620 c-3 -11 -1 -23 4 -26 5 -3 9 -1 9 5 0 5 3 16 6 25 3 9
2 16 -4 16 -5 0 -12 -9 -15 -20z"/>
<path d="M19143 20590 c0 -25 2 -35 4 -22 2 12 2 32 0 45 -2 12 -4 2 -4 -23z"/>
<path d="M19960 20610 c0 -5 5 -10 11 -10 5 0 7 5 4 10 -3 6 -8 10 -11 10 -2
0 -4 -4 -4 -10z"/>
<path d="M20002 20609 c2 -6 7 -10 11 -10 4 1 15 1 25 1 14 0 15 2 2 10 -20
13 -43 13 -38 -1z"/>
<path d="M20066 20611 c-3 -5 1 -11 9 -15 15 -6 29 7 18 18 -9 9 -21 8 -27 -3z"/>
<path d="M18500 20599 c0 -5 5 -7 10 -4 6 3 10 8 10 11 0 2 -4 4 -10 4 -5 0
-10 -5 -10 -11z"/>
<path d="M19071 20584 c0 -11 3 -14 6 -6 3 7 2 16 -1 19 -3 4 -6 -2 -5 -13z"/>
<path d="M19276 20534 c-3 -9 -2 -23 4 -32 7 -14 9 -10 10 16 0 35 -5 41 -14
16z"/>
<path d="M19214 20410 c0 -69 1 -97 3 -62 2 34 2 90 0 125 -2 34 -3 6 -3 -63z"/>
<path d="M20075 20520 c-3 -5 -1 -10 4 -10 6 0 11 5 11 10 0 6 -2 10 -4 10 -3
0 -8 -4 -11 -10z"/>
<path d="M20255 20520 c-3 -5 1 -10 9 -10 9 0 16 5 16 10 0 6 -4 10 -9 10 -6
0 -13 -4 -16 -10z"/>
<path d="M18981 20498 c0 -9 -7 -18 -13 -21 -7 -2 -10 -8 -5 -12 11 -13 29 11
24 31 -4 16 -5 16 -6 2z"/>
<path d="M19730 20470 c0 -5 5 -10 10 -10 6 0 10 5 10 10 0 6 -4 10 -10 10 -5
0 -10 -4 -10 -10z"/>
<path d="M20316 20464 c-4 -9 -4 -19 -1 -22 3 -3 5 0 5 6 0 7 6 12 14 12 8 0
18 5 21 10 3 6 -3 10 -13 10 -11 0 -23 -7 -26 -16z"/>
<path d="M19052 20425 c0 -16 2 -22 5 -12 2 9 2 23 0 30 -3 6 -5 -1 -5 -18z"/>
<path d="M18955 20430 c-3 -5 -1 -10 4 -10 6 0 11 5 11 10 0 6 -2 10 -4 10 -3
0 -8 -4 -11 -10z"/>
<path d="M19142 20394 c-1 -36 -7 -54 -17 -58 -17 -6 -21 -46 -5 -46 6 0 10 9
10 19 0 11 5 21 11 23 6 2 9 25 6 58 l-3 55 -2 -51z"/>
<path d="M19570 20424 c0 -8 5 -12 10 -9 6 4 8 11 5 16 -9 14 -15 11 -15 -7z"/>
<path d="M20495 20430 c-18 -8 -17 -9 8 -9 16 -1 26 3 22 9 -3 6 -7 10 -8 9
-1 0 -11 -4 -22 -9z"/>
<path d="M20370 20400 c0 -5 5 -10 10 -10 6 0 10 5 10 10 0 6 -4 10 -10 10 -5
0 -10 -4 -10 -10z"/>
<path d="M19303 20320 c0 -41 2 -58 4 -37 2 20 2 54 0 75 -2 20 -4 3 -4 -38z"/>
<path d="M20350 20360 c0 -5 5 -10 11 -10 5 0 7 5 4 10 -3 6 -8 10 -11 10 -2
0 -4 -4 -4 -10z"/>
<path d="M19434 20315 c-3 -8 -1 -27 4 -42 10 -27 10 -26 11 15 1 43 -5 54
-15 27z"/>
<path d="M19552 20310 c0 -14 2 -19 5 -12 2 6 2 18 0 25 -3 6 -5 1 -5 -13z"/>
<path d="M20260 20316 c0 -9 5 -16 10 -16 6 0 10 4 10 9 0 6 -4 13 -10 16 -5
3 -10 -1 -10 -9z"/>
<path d="M20395 20290 c-3 -5 -1 -10 4 -10 6 0 11 5 11 10 0 6 -2 10 -4 10 -3
0 -8 -4 -11 -10z"/>
<path d="M19090 20260 c0 -5 7 -7 15 -4 8 4 15 8 15 10 0 2 -7 4 -15 4 -8 0
-15 -4 -15 -10z"/>
<path d="M19280 20217 c0 -13 -5 -28 -12 -35 -9 -9 -8 -12 5 -12 13 0 17 9 17
35 0 19 -2 35 -5 35 -3 0 -5 -10 -5 -23z"/>
<path d="M19572 20210 c0 -14 2 -19 5 -12 2 6 2 18 0 25 -3 6 -5 1 -5 -13z"/>
<path d="M19756 20185 c-3 -8 -1 -15 4 -15 6 0 10 7 10 15 0 8 -2 15 -4 15 -2
0 -6 -7 -10 -15z"/>
<path d="M19128 20138 c-19 -19 -13 -24 11 -9 7 5 12 13 10 18 -2 5 -12 1 -21
-9z"/>
<path d="M19872 20120 c0 -14 2 -19 5 -12 2 6 2 18 0 25 -3 6 -5 1 -5 -13z"/>
<path d="M20050 20130 c0 -5 5 -10 10 -10 6 0 10 5 10 10 0 6 -4 10 -10 10 -5
0 -10 -4 -10 -10z"/>
<path d="M19241 20114 c-7 -8 -11 -17 -9 -20 3 -2 13 5 23 16 10 11 14 20 9
20 -5 -1 -15 -8 -23 -16z"/>
<path d="M19782 20105 c0 -16 2 -22 5 -12 2 9 2 23 0 30 -3 6 -5 -1 -5 -18z"/>
<path d="M19437 20113 c-11 -10 -8 -43 3 -43 6 0 10 11 10 25 0 26 -2 29 -13
18z"/>
<path d="M19711 20104 c0 -11 3 -14 6 -6 3 7 2 16 -1 19 -3 4 -6 -2 -5 -13z"/>
<path d="M19597 20053 c-11 -10 -8 -93 3 -93 6 0 10 23 10 50 0 51 -1 55 -13
43z"/>
<path d="M19425 20040 c-3 -5 1 -10 9 -10 9 0 16 5 16 10 0 6 -4 10 -9 10 -6
0 -13 -4 -16 -10z"/>
<path d="M19730 19980 c0 -32 4 -49 10 -45 6 3 10 24 10 45 0 21 -4 42 -10 45
-6 4 -10 -13 -10 -45z"/>
<path d="M19295 20010 c3 -5 8 -10 11 -10 2 0 4 5 4 10 0 6 -5 10 -11 10 -5 0
-7 -4 -4 -10z"/>
<path d="M19410 20005 c0 -8 2 -15 4 -15 2 0 6 7 10 15 3 8 1 15 -4 15 -6 0
-10 -7 -10 -15z"/>
<path d="M19065 19990 c-3 -5 -1 -10 4 -10 6 0 11 5 11 10 0 6 -2 10 -4 10 -3
0 -8 -4 -11 -10z"/>
<path d="M19391 19964 c0 -11 3 -14 6 -6 3 7 2 16 -1 19 -3 4 -6 -2 -5 -13z"/>
<path d="M19568 19910 c-2 -26 1 -40 8 -40 7 0 14 18 16 40 2 26 -1 40 -8 40
-7 0 -14 -18 -16 -40z"/>
<path d="M19482 19910 c0 -14 2 -19 5 -12 2 6 2 18 0 25 -3 6 -5 1 -5 -13z"/>
<path d="M19872 19910 c0 -14 2 -19 5 -12 2 6 2 18 0 25 -3 6 -5 1 -5 -13z"/>
<path d="M19730 19870 c0 -5 5 -10 10 -10 6 0 10 5 10 10 0 6 -4 10 -10 10 -5
0 -10 -4 -10 -10z"/>
<path d="M19411 19834 c-12 -14 -21 -27 -19 -29 5 -5 58 40 58 49 0 12 -15 4
-39 -20z"/>
<path d="M19543 19831 c-9 -24 -8 -29 3 -24 8 3 14 16 14 29 0 31 -3 30 -17
-5z"/>
<path d="M20210 19829 c0 -5 5 -7 10 -4 6 3 10 8 10 11 0 2 -4 4 -10 4 -5 0
-10 -5 -10 -11z"/>
<path d="M19738 19824 c-5 -4 -8 -16 -8 -28 0 -14 3 -17 11 -9 6 6 9 19 7 28
-1 9 -6 13 -10 9z"/>
<path d="M19890 19746 c0 -25 5 -46 10 -46 6 0 10 18 10 39 0 22 -4 43 -10 46
-6 4 -10 -12 -10 -39z"/>
<path d="M19621 19744 c0 -11 3 -14 6 -6 3 7 2 16 -1 19 -3 4 -6 -2 -5 -13z"/>
<path d="M19712 19720 c0 -14 2 -19 5 -12 2 6 2 18 0 25 -3 6 -5 1 -5 -13z"/>
<path d="M19577 19699 c-16 -17 -27 -33 -24 -35 5 -6 57 46 57 57 0 13 -2 12
-33 -22z"/>
<path d="M19687 19660 c-3 -11 -1 -20 4 -20 5 0 9 9 9 20 0 11 -2 20 -4 20 -2
0 -6 -9 -9 -20z"/>
<path d="M19890 19634 c0 -14 4 -23 10 -19 6 3 10 15 10 26 0 10 -4 19 -10 19
-5 0 -10 -12 -10 -26z"/>
<path d="M19782 19610 c0 -14 2 -19 5 -12 2 6 2 18 0 25 -3 6 -5 1 -5 -13z"/>
<path d="M19890 19568 c0 -19 2 -20 10 -8 13 19 13 30 0 30 -5 0 -10 -10 -10
-22z"/>
<path d="M19730 19540 c0 -11 -4 -20 -10 -20 -5 0 -10 -5 -10 -12 0 -6 9 -3
20 7 21 19 27 45 10 45 -5 0 -10 -9 -10 -20z"/>
<path d="M33141 19473 c-13 -3 -42 -24 -65 -47 -46 -45 -56 -80 -56 -192 l0
-53 -52 -3 -53 -3 -3 -42 -3 -42 53 -3 53 -3 5 -325 5 -325 57 -3 58 -3 2 328
3 328 70 5 70 5 3 34 c4 43 -8 51 -85 51 l-63 0 0 55 c0 61 19 108 49 125 11
5 44 10 74 10 53 0 56 1 66 31 19 54 15 66 -26 73 -41 6 -124 6 -162 -1z"/>
<path d="M22353 19453 c2 -10 88 -143 191 -297 l186 -278 0 -208 c0 -115 3
-215 6 -224 5 -12 21 -16 65 -16 l59 0 0 214 0 214 37 53 c20 30 95 140 168
244 190 273 205 296 205 306 0 5 -29 9 -64 9 -48 0 -69 -4 -82 -17 -16 -16
-192 -280 -219 -328 -26 -46 -85 -134 -94 -140 -6 -3 -29 27 -52 67 -55 94
-237 378 -257 401 -12 13 -31 17 -85 17 -61 0 -69 -2 -64 -17z"/>
<path d="M27966 19455 c-3 -9 -6 -91 -6 -181 0 -90 -4 -164 -8 -164 -4 0 -26
13 -48 30 -61 45 -137 61 -210 46 -73 -16 -110 -35 -150 -78 -80 -86 -105
-159 -105 -303 0 -188 63 -305 198 -366 92 -42 232 -21 292 44 29 32 41 27 41
-19 l0 -34 55 0 55 0 -2 518 -3 517 -51 3 c-40 2 -53 -1 -58 -13z m-118 -382
c83 -53 122 -141 122 -280 0 -138 -43 -223 -134 -264 -74 -34 -148 -17 -207
48 -60 64 -88 182 -69 298 16 100 46 154 110 197 35 24 141 24 178 1z"/>
<path d="M28294 19456 c-3 -7 -4 -40 -2 -72 l3 -59 43 -3 c58 -4 72 10 72 68
0 74 -5 80 -61 80 -33 0 -51 -5 -55 -14z"/>
<path d="M31450 18950 l0 -520 54 0 c47 0 54 3 60 23 11 40 7 977 -4 998 -8
15 -22 19 -60 19 l-50 0 0 -520z"/>
<path d="M25850 19399 l-45 -28 -5 -93 -5 -93 -45 -5 -45 -5 0 -40 0 -40 45
-5 45 -5 5 -285 c4 -201 9 -291 17 -307 32 -54 110 -82 198 -69 41 7 45 10 45
34 0 59 -10 72 -52 72 -28 0 -46 7 -64 25 l-24 24 2 253 3 253 60 5 60 5 0 40
0 40 -62 3 -63 3 0 118 c0 86 -3 120 -12 124 -7 2 -33 -8 -58 -24z"/>
<path d="M32669 19403 c-24 -14 -46 -28 -49 -30 -3 -3 -7 -46 -10 -96 l-5 -92
-40 -5 c-39 -5 -40 -6 -43 -47 -3 -43 -3 -43 30 -43 18 0 38 -4 45 -8 9 -5 13
-85 15 -288 3 -247 5 -283 21 -307 32 -48 64 -62 148 -62 43 0 80 3 84 7 4 3
3 27 0 52 -7 45 -8 46 -45 46 -23 0 -48 8 -64 21 l-26 21 2 256 3 257 63 3 62
3 0 38 c0 45 -9 51 -81 51 l-49 0 0 119 c0 66 -4 122 -8 125 -5 3 -28 -7 -53
-21z"/>
<path d="M23495 19186 c-85 -19 -124 -38 -172 -88 -59 -61 -90 -128 -100 -221
-18 -149 16 -281 90 -359 55 -58 110 -86 188 -97 180 -25 335 59 387 211 18
53 22 88 22 176 0 61 -5 124 -11 139 -46 113 -90 168 -167 207 -42 21 -68 28
-152 40 -14 3 -52 -1 -85 -8z m163 -110 c34 -18 72 -59 102 -111 20 -35 23
-54 24 -160 0 -106 -2 -125 -23 -168 -84 -171 -316 -168 -391 5 -31 70 -39
201 -17 276 23 77 58 122 122 159 29 16 151 16 183 -1z"/>
<path d="M26912 19189 c-136 -20 -224 -83 -252 -180 -8 -27 -6 -31 16 -39 14
-6 40 -10 59 -10 26 0 35 5 41 23 23 76 77 107 186 107 126 0 173 -34 185
-130 6 -48 5 -49 -28 -64 -19 -8 -65 -19 -104 -25 -38 -6 -101 -16 -140 -21
-134 -21 -213 -77 -242 -172 -24 -80 13 -176 86 -222 47 -30 88 -39 177 -38
79 1 135 19 202 65 45 30 72 30 72 0 1 -37 25 -53 79 -53 55 0 62 10 40 51 -6
12 -13 134 -18 292 -8 318 -11 330 -94 377 -28 16 -73 31 -101 35 -28 3 -62 8
-76 9 -14 2 -53 0 -88 -5z m232 -464 c0 -59 -4 -76 -28 -112 -48 -73 -108
-103 -205 -103 -80 0 -125 23 -147 77 -20 46 -11 79 31 119 35 33 76 46 195
64 30 5 71 13 90 18 62 18 65 14 64 -63z"/>
<path d="M28913 19189 c-60 -11 -108 -36 -148 -76 -38 -38 -42 -35 -47 27 -3
35 -3 35 -53 35 l-50 0 -3 -372 -2 -373 59 0 58 0 5 253 c6 304 12 326 100
376 91 53 177 40 235 -36 l28 -36 4 -279 3 -278 59 0 59 0 0 280 c0 195 -4
293 -12 323 -33 109 -169 181 -295 156z"/>
<path d="M29640 19185 c-148 -31 -230 -130 -259 -314 -11 -66 2 -195 20 -215
5 -6 9 -16 9 -23 0 -28 70 -122 112 -150 103 -70 250 -68 344 6 15 11 31 21
35 21 15 0 10 -126 -7 -166 -35 -85 -117 -130 -218 -122 -74 6 -117 30 -149
84 -27 44 -28 45 -75 42 l-47 -3 4 -35 c6 -67 49 -119 129 -156 45 -20 68 -24
155 -24 139 0 215 30 275 108 55 72 57 90 57 532 l0 405 -29 3 c-53 6 -76 -5
-76 -38 0 -35 -17 -39 -47 -11 -54 51 -148 73 -233 56z m164 -116 c35 -20 47
-35 87 -106 19 -33 22 -54 23 -153 0 -101 -3 -121 -23 -163 -61 -123 -221
-153 -319 -58 -55 53 -76 126 -70 241 6 104 35 178 87 219 47 37 55 39 123 40
40 1 67 -5 92 -20z"/>
<path d="M30929 19189 c-55 -8 -95 -28 -131 -64 -31 -31 -48 -26 -48 15 0 33
-23 44 -76 38 l-29 -3 0 -515 0 -515 55 0 55 0 3 173 c1 94 5 172 8 172 3 0
19 -9 34 -20 52 -37 103 -52 170 -52 74 1 124 20 187 70 45 35 103 126 103
160 0 12 5 24 10 27 14 9 13 230 -2 274 -31 97 -88 175 -152 208 -47 25 -136
40 -187 32z m138 -126 c78 -63 113 -187 92 -320 -18 -118 -62 -188 -136 -219
-39 -17 -106 -18 -136 -3 -35 18 -107 92 -107 109 0 9 -6 22 -12 29 -9 8 -13
49 -12 134 0 114 2 126 30 181 29 59 74 105 116 118 48 15 129 1 165 -29z"/>
<path d="M32060 19193 c-100 -14 -151 -28 -187 -49 -45 -26 -96 -91 -107 -137
-7 -30 4 -37 71 -50 29 -6 33 -3 55 41 35 72 73 92 173 92 131 0 185 -39 185
-135 0 -48 -2 -53 -27 -63 -27 -10 -98 -22 -238 -42 -89 -12 -183 -58 -212
-103 -72 -113 -39 -247 75 -303 44 -22 67 -26 135 -26 97 0 162 20 229 69 l47
34 16 -37 c8 -20 15 -40 15 -45 0 -5 27 -9 60 -9 33 0 60 3 60 8 0 4 -5 23
-12 42 -8 22 -14 132 -18 295 -5 243 -6 263 -28 306 -14 30 -35 53 -60 67 -52
29 -178 54 -232 45z m190 -466 c0 -65 -4 -79 -30 -119 -43 -65 -108 -98 -196
-98 -82 0 -126 22 -151 75 -15 31 -15 40 -3 73 23 65 51 81 170 101 41 7 100
19 130 26 84 21 80 24 80 -58z"/>
<path d="M33641 19188 c-186 -30 -291 -168 -291 -383 0 -168 59 -284 180 -352
51 -29 147 -43 220 -33 160 23 263 126 289 291 19 115 10 200 -31 299 -20 47
-100 126 -151 149 -37 17 -62 23 -142 35 -11 2 -44 -1 -74 -6z m157 -117 c47
-24 68 -50 98 -118 20 -45 24 -70 24 -153 0 -83 -4 -108 -24 -152 -83 -186
-309 -185 -397 1 -16 35 -20 63 -20 151 0 91 3 114 24 161 41 90 98 128 195
129 43 0 74 -6 100 -19z"/>
<path d="M34972 19185 c-52 -12 -126 -55 -141 -83 -13 -23 -31 -4 -31 33 0 38
-21 50 -76 43 l-29 -3 0 -370 0 -370 58 -3 57 -3 0 217 c0 239 10 321 47 372
65 88 204 97 259 15 17 -25 19 -54 24 -313 l5 -285 57 -3 56 -3 4 258 c4 248
5 260 28 305 43 86 161 125 237 78 59 -35 63 -61 63 -367 l0 -274 58 3 57 3 0
305 -1 305 -27 42 c-79 124 -262 140 -377 33 -47 -44 -67 -49 -77 -22 -23 67
-148 110 -251 87z"/>
<path d="M25093 19173 c-18 -10 -43 -32 -55 -49 -33 -45 -42 -44 -48 6 -5 41
-8 45 -34 48 -15 2 -39 1 -52 -2 l-24 -6 0 -370 0 -370 60 0 c54 0 60 2 65 23
2 12 6 130 7 262 3 269 7 285 79 333 34 24 39 24 134 10 21 -3 43 30 47 73 6
50 -113 78 -179 42z"/>
<path d="M26382 19170 c-18 -11 -41 -34 -50 -50 -24 -43 -42 -38 -42 10 0 33
-4 41 -24 46 -13 3 -37 4 -52 2 l-29 -3 -3 -373 -2 -373 57 3 58 3 6 240 c3
132 8 247 11 255 4 8 9 27 12 43 9 38 61 85 103 93 20 4 52 2 71 -4 42 -13 49
-9 67 44 16 47 8 59 -44 74 -56 15 -103 12 -139 -10z"/>
<path d="M34425 19181 c-11 -5 -37 -27 -58 -50 -21 -22 -42 -41 -47 -41 -5 0
-10 19 -12 43 -3 38 -6 42 -32 45 -15 2 -39 1 -52 -2 l-24 -6 0 -354 c0 -195
3 -361 6 -370 5 -12 20 -16 60 -16 47 0 54 3 59 23 2 12 6 128 7 257 3 264 10
292 78 338 29 20 43 23 80 17 25 -3 53 -7 63 -8 14 -1 23 10 34 41 8 24 12 49
10 56 -11 27 -127 45 -172 27z"/>
<path d="M24074 19165 c-4 -9 -4 -140 -2 -293 l4 -277 30 -60 c25 -53 36 -63
86 -89 104 -53 251 -34 324 41 37 38 54 32 54 -18 l0 -39 50 0 50 0 -2 373 -3
372 -50 0 -50 0 -6 -245 c-3 -148 -11 -260 -18 -283 -18 -55 -71 -104 -136
-122 -51 -15 -59 -15 -105 0 -47 16 -73 40 -96 90 -5 11 -11 142 -14 290 l-5
270 -53 3 c-40 2 -54 -1 -58 -13z"/>
<path d="M28297 19173 c-4 -3 -7 -172 -7 -375 l0 -369 58 3 57 3 3 364 c2 285
-1 366 -10 373 -16 9 -92 11 -101 1z"/>
</g>
</svg>
